mtllib boss_left_arm_palm.mtl
o float_R_arm_palm
v -0.452017 -0.725920 -0.090859
v -0.443234 -0.581789 -0.090859
v -0.452017 -0.725920 0.268489
v -0.443233 -0.581789 0.268489
v -0.310076 -0.757919 -0.090859
v -0.301293 -0.613787 -0.090859
v -0.310076 -0.757919 0.268489
v -0.301293 -0.613787 0.268489
v -0.411110 -0.902862 0.216281
v -0.335300 -0.875897 0.216281
v -0.335300 -0.875897 -0.038651
v -0.411110 -0.902862 -0.038651
v -0.321332 -1.042613 0.096666
v -0.316662 -1.040952 0.096666
v -0.316662 -1.040952 0.080964
v -0.321332 -1.042613 0.080964
v -0.452017 -0.725920 0.382457
v -0.439912 -0.588418 0.303361
v -0.297971 -0.620417 0.303361
v -0.310076 -0.757919 0.382457
v -0.331808 -0.922358 0.281448
v -0.331808 -0.922358 0.291710
v -0.319027 -0.925240 0.291710
v -0.319027 -0.925240 0.281448
vn -0.9981 0.0608 -0.0000
vn -0.2199 -0.9755 -0.0000
vn 0.9981 -0.0608 -0.0000
vn -0.0000 -0.0000 -1.0000
vn 0.2199 0.9755 -0.0000
vn -0.0077 -0.3341 0.9425
vn 0.9779 -0.2091 -0.0000
vn -0.0077 -0.3341 -0.9425
vn -0.9743 -0.2252 -0.0000
vn 0.3351 -0.9422 -0.0000
vn 0.1993 -0.5602 0.8040
vn 0.9937 0.1122 -0.0000
vn 0.1993 -0.5602 -0.8040
vn -0.8413 -0.5405 -0.0000
vn 0.1101 0.4883 0.8657
vn -0.9964 0.0812 0.0259
vn 0.2170 0.9626 0.1623
vn 0.9964 -0.0812 -0.0259
vn -0.8530 -0.5220 -0.0000
vn -0.1059 -0.4697 0.8765
vn 0.9986 -0.0534 -0.0000
vn -0.0172 -0.0763 -0.9969
vt 0.006070 0.657305
vt 0.112673 0.639505
vt 0.119825 0.682341
vt 0.013223 0.700141
vt 0.141195 0.648349
vt 0.141803 0.648653
vt 0.141883 0.649121
vt 0.141110 0.649131
vt 0.166667 0.630436
vt 0.293226 0.647479
vt 0.286378 0.698335
vt 0.159819 0.681293
vt 0.342705 0.662499
vt 0.335856 0.713355
vt 0.279477 0.749581
vt 0.152918 0.732538
vt 0.158067 0.562696
vt 0.209891 0.596980
vt 0.204483 0.608384
vt 0.247733 0.618896
vt 0.303569 0.562696
vt 0.243268 0.602883
vt 0.221364 0.606003
vt 0.223125 0.606313
vt 0.222949 0.607001
vt 0.221312 0.606408
vt 0.134296 0.655977
vt 0.145337 0.655364
vt 0.151931 0.671756
vt 0.126776 0.674162
v -0.127481 0.009224 0.001763
v -0.015777 0.183213 0.001763
v -0.127481 0.009224 0.208524
v -0.015777 0.183213 0.208524
v 0.046508 -0.102480 0.001763
v 0.158212 0.071509 0.001763
v 0.046508 -0.102480 0.208524
v 0.158212 0.071509 0.208524
vn -0.8415 0.5403 -0.0000
vn -0.0000 -0.0000 1.0000
vn 0.8415 -0.5403 -0.0000
vn -0.0000 -0.0000 -1.0000
vn -0.5403 -0.8415 -0.0000
vn 0.5403 0.8415 -0.0000
vt 0.293574 0.790206
vt 0.348524 0.790206
vt 0.348524 0.735256
vt 0.293574 0.735256
vt 0.403474 0.790206
vt 0.403474 0.735256
vt 0.458424 0.790206
vt 0.458424 0.735256
vt 0.513374 0.790206
vt 0.513374 0.735256
vt 0.403474 0.845156
vt 0.458424 0.845156
vt 0.458424 0.680306
vt 0.403474 0.680306
v -0.330301 -0.195709 -0.002464
v -0.185612 -0.048011 -0.002464
v -0.330301 -0.195709 0.204297
v -0.185612 -0.048011 0.204297
v -0.182602 -0.340399 -0.002464
v -0.037913 -0.192700 -0.002464
v -0.182602 -0.340399 0.204297
v -0.037913 -0.192700 0.204297
vn -0.7143 0.6998 -0.0000
vn -0.0000 -0.0000 1.0000
vn 0.7143 -0.6998 -0.0000
vn -0.0000 -0.0000 -1.0000
vn -0.6998 -0.7143 -0.0000
vn 0.6998 0.7143 -0.0000
vt 0.240303 0.757101
vt 0.185353 0.757101
vt 0.185353 0.812051
vt 0.240303 0.812051
vt 0.130403 0.757101
vt 0.130403 0.812051
vt 0.075453 0.757101
vt 0.075453 0.812051
vt 0.020503 0.757101
vt 0.020503 0.812051
vt 0.130403 0.702151
vt 0.075453 0.702151
vt 0.075453 0.867001
vt 0.130403 0.867001
v -0.430799 -0.517337 -0.007968
v -0.372903 -0.318848 -0.007968
v -0.430799 -0.517337 0.198792
v -0.372903 -0.318848 0.198792
v -0.232310 -0.575233 -0.007968
v -0.174414 -0.376744 -0.007968
v -0.232310 -0.575233 0.198792
v -0.174414 -0.376744 0.198792
vn -0.9600 0.2800 -0.0000
vn -0.0000 -0.0000 1.0000
vn 0.9600 -0.2800 -0.0000
vn -0.0000 -0.0000 -1.0000
vn -0.2800 -0.9600 -0.0000
vn 0.2800 0.9600 -0.0000
vt 0.761197 0.656759
vt 0.761197 0.711709
vt 0.816147 0.711709
vt 0.816147 0.656759
vt 0.761197 0.766659
vt 0.816147 0.766659
vt 0.761197 0.821609
vt 0.816147 0.821609
vt 0.761197 0.876559
vt 0.816147 0.876559
vt 0.706247 0.766659
vt 0.706247 0.821609
vt 0.871097 0.821609
vt 0.871097 0.766659
usemtl Material.001
s 0
f 1/1/1 3/2/1 4/3/1 2/4/1
f 21/5/2 24/6/2 23/7/2 22/8/2
f 7/9/3 5/10/3 6/11/3 8/12/3
f 5/10/4 1/13/4 2/14/4 6/11/4
f 8/12/5 6/11/5 2/15/5 4/16/5
f 7/9/6 3/17/6 9/18/6 10/19/6
f 5/10/7 7/9/7 10/19/7 11/20/7
f 1/21/8 5/10/8 11/20/8 12/22/8
f 3/17/9 1/21/9 12/22/9 9/18/9
f 13/23/10 16/24/10 15/25/10 14/26/10
f 10/19/11 9/18/11 13/23/11 14/26/11
f 11/20/12 10/19/12 14/26/12 15/25/12
f 12/22/13 11/20/13 15/25/13 16/24/13
f 9/18/14 12/22/14 16/24/14 13/23/14
f 17/27/15 20/28/15 19/29/15 18/30/15
f 4/3/16 3/2/16 17/27/16 18/30/16
f 8/12/17 4/3/17 18/30/17 19/29/17
f 7/9/18 8/12/18 19/29/18 20/28/18
f 17/27/19 3/2/19 21/5/19 22/8/19
f 20/28/20 17/27/20 22/8/20 23/7/20
f 7/9/21 20/28/21 23/7/21 24/6/21
f 3/2/22 7/9/22 24/6/22 21/5/22
