# Blender 5.1.1
# www.blender.org
mtllib boss_head.mtl
o Head
v 0.239857 0.740152 -0.239857
v 0.239857 0.260437 -0.239857
v 0.239857 0.740152 0.239857
v 0.239857 0.260437 0.239857
v -0.239857 0.740152 -0.239857
v -0.239857 0.260437 -0.239857
v -0.239857 0.740152 0.239857
v -0.239857 0.260437 0.239857
v -0.292419 0.207875 -0.000000
v 0.000000 0.207875 -0.292419
v 0.292419 0.500294 -0.292419
v -0.292419 0.500294 0.292419
v 0.292419 0.500294 0.292419
v -0.292419 0.500294 -0.292419
v -0.000000 0.792713 0.292419
v 0.292419 0.792713 0.000000
v -0.000000 0.207875 0.292419
v -0.292419 0.792713 -0.000000
v 0.000000 0.792713 -0.292419
v 0.292419 0.207875 0.000000
v -0.000000 0.903018 -0.000000
v 0.000000 0.500294 0.402724
v -0.402724 0.500294 -0.000000
v 0.000000 0.097571 0.000000
v 0.402724 0.500294 -0.000000
v 0.000000 0.500294 -0.402724
vn 0.3061 0.9015 -0.3061
vn -0.3061 0.9015 -0.3061
vn -0.3061 0.9015 0.3061
vn 0.3061 0.9015 0.3061
vn 0.3061 -0.3061 0.9015
vn 0.3061 0.3061 0.9015
vn -0.3061 0.3061 0.9015
vn -0.3061 -0.3061 0.9015
vn -0.9015 -0.3061 0.3061
vn -0.9015 0.3061 0.3061
vn -0.9015 0.3061 -0.3061
vn -0.9015 -0.3061 -0.3061
vn -0.3061 -0.9015 -0.3061
vn 0.3061 -0.9015 -0.3061
vn 0.3061 -0.9015 0.3061
vn -0.3061 -0.9015 0.3061
vn 0.9015 -0.3061 -0.3061
vn 0.9015 0.3061 -0.3061
vn 0.9015 0.3061 0.3061
vn 0.9015 -0.3061 0.3061
vn -0.3061 -0.3061 -0.9015
vn -0.3061 0.3061 -0.9015
vn 0.3061 0.3061 -0.9015
vn 0.3061 -0.3061 -0.9015
vt 0.664800 0.373349
vt 0.701105 0.317102
vt 0.756286 0.368503
vt 0.708959 0.415878
vt 0.754638 0.276904
vt 0.809582 0.315151
vt 0.847886 0.370055
vt 0.807744 0.423630
vt 0.751535 0.459993
vt 0.664800 0.546638
vt 0.708960 0.504108
vt 0.756286 0.551484
vt 0.701105 0.602885
vt 0.807744 0.496356
vt 0.847886 0.549931
vt 0.809582 0.604836
vt 0.754638 0.643083
vt 0.388835 0.276912
vt 0.427183 0.222038
vt 0.480553 0.275463
vt 0.428897 0.330548
vt 0.482097 0.183747
vt 0.535691 0.223865
vt 0.572169 0.279999
vt 0.528310 0.323271
vt 0.484993 0.367085
vt 0.481707 0.549550
vt 0.521961 0.496059
vt 0.573305 0.551293
vt 0.519897 0.604534
vt 0.578246 0.459813
vt 0.620729 0.504017
vt 0.628378 0.602809
vt 0.574762 0.642896
vt 0.620984 0.416041
vt 0.664890 0.459993
vt 0.574907 0.369916
vt 0.522779 0.422339
vt 0.627384 0.317843
s 0
usemtl Material.001
f 1/1/1 19/2/1 21/3/1 16/4/1
f 19/2/2 5/5/2 18/6/2 21/3/2
f 21/3/3 18/6/3 7/7/3 15/8/3
f 16/4/4 21/3/4 15/8/4 3/9/4
f 4/10/5 13/11/5 22/12/5 17/13/5
f 13/11/6 3/9/6 15/14/6 22/12/6
f 22/12/7 15/14/7 7/15/7 12/16/7
f 17/13/8 22/12/8 12/16/8 8/17/8
f 8/18/9 12/19/9 23/20/9 9/21/9
f 12/19/10 7/22/10 18/23/10 23/20/10
f 23/20/11 18/23/11 5/24/11 14/25/11
f 9/21/12 23/20/12 14/25/12 6/26/12
f 6/27/13 10/28/13 24/29/13 9/30/13
f 10/28/14 2/31/14 20/32/14 24/29/14
f 24/29/15 20/32/15 4/10/15 17/33/15
f 9/30/16 24/29/16 17/33/16 8/34/16
f 2/31/17 11/35/17 25/36/17 20/32/17
f 11/35/18 1/1/18 16/4/18 25/36/18
f 25/36/19 16/4/19 3/9/19 13/11/19
f 20/32/20 25/36/20 13/11/20 4/10/20
f 6/26/21 14/25/21 26/37/21 10/38/21
f 14/25/22 5/24/22 19/39/22 26/37/22
f 26/37/23 19/39/23 1/1/23 11/35/23
f 10/38/24 26/37/24 11/35/24 2/31/24
o Horn_R
v 0.256063 0.471719 0.427151
v 0.250877 0.691643 0.468657
v 0.168287 0.476384 0.458231
v 0.209256 0.693855 0.483394
v 0.197156 0.499666 0.287222
v 0.204881 0.645011 0.287222
v 0.129501 0.503262 0.311178
v 0.137227 0.648607 0.311178
v 0.285275 0.559632 0.527264
v 0.249514 0.648386 0.611543
v 0.324764 1.001480 0.581636
v 0.204180 0.563942 0.555979
v 0.306634 0.645350 0.591317
v 0.323790 1.003336 0.579205
v 0.325867 1.001421 0.581245
v 0.325269 1.003258 0.578681
v 0.304409 0.532184 0.411215
v 0.307750 0.595041 0.411215
v 0.129964 0.604491 0.474167
v 0.126623 0.541634 0.474167
v 0.099963 0.602002 0.323461
v 0.097388 0.553554 0.323461
v 0.236995 0.594719 0.274939
v 0.234419 0.546270 0.274939
v 0.149774 0.676809 0.517870
v 0.156187 0.621481 0.544286
v 0.323810 1.002132 0.581048
v 0.323420 1.002755 0.580261
v 0.326163 1.002609 0.579290
v 0.326298 1.002000 0.580167
v 0.200067 0.682168 0.581127
v 0.179907 0.714392 0.540341
v 0.321947 0.706842 0.490046
v 0.328934 0.675318 0.535496
v 0.148229 0.690142 0.511504
v 0.152897 0.649870 0.530732
v 0.312566 0.680693 0.453686
v 0.317468 0.638403 0.473877
vn 0.6595 -0.6338 -0.4042
vn -0.7551 0.6406 0.1397
vn -0.3329 0.0177 -0.9428
vn 0.7337 0.5618 -0.3822
vn -0.1059 -0.9827 -0.1517
vn -0.0337 0.9700 -0.2408
vn 0.2312 0.8157 0.5303
vn -0.1355 0.4463 -0.8846
vn -0.7755 0.1966 0.5999
vn -0.6190 -0.3762 0.6894
vn 0.1786 -0.7646 0.6193
vn 0.2328 -0.6187 0.7503
vn 0.0023 0.8116 -0.5843
vn -0.7276 0.4338 -0.5314
vn 0.3342 0.0086 0.9425
vn 0.9352 -0.0406 0.3518
vn -0.2908 0.3795 -0.8783
vn 0.8866 -0.0471 -0.4602
vn -0.8241 -0.5545 0.1160
vn -0.9796 0.0521 0.1941
vn 0.2221 0.2770 -0.9348
vn 0.9906 0.0263 -0.1340
vn -0.4313 0.1670 0.8866
vn -0.7475 0.2892 0.5980
vn 0.2312 0.8157 0.5302
vn -0.2559 0.8598 -0.4419
vn -0.3982 0.4366 -0.8068
vn -0.7426 0.2165 0.6337
vn -0.9395 0.0528 0.3386
vn 0.9917 -0.0527 -0.1173
vn 0.9692 -0.0052 -0.2463
vn 0.7863 -0.5596 0.2620
vn 0.9435 -0.3140 0.1056
vn -0.7476 0.6487 0.1423
vn 0.7088 0.6187 -0.3387
vn 0.2313 0.8157 0.5302
vn -0.5133 -0.2621 0.8172
vn -0.5653 -0.0891 0.8201
vn -0.5493 -0.5120 0.6604
vn -0.9400 0.0520 0.3371
vn -0.8900 0.4516 -0.0626
vn 0.9352 -0.0406 0.3519
vn -0.8240 -0.5545 0.1160
vn 0.6504 0.2109 -0.7297
vn 0.9906 0.0263 -0.1341
vn -0.4312 0.1670 0.8867
vn 0.2311 0.8158 0.5301
vn 0.2311 0.8157 0.5303
vn -0.7808 0.2410 0.5764
vn -0.9389 0.0499 0.3406
vn 0.9842 0.0310 -0.1741
vn 0.9854 -0.0247 -0.1686
vn 0.9465 -0.2422 0.2133
vn 0.8836 -0.4555 0.1085
vt 0.892256 0.723323
vt 0.931050 0.768351
vt 0.904270 0.776888
vt 0.887652 0.642456
vt 0.924268 0.676833
vt 0.905789 0.678083
vt 0.939002 0.698655
vt 0.926314 0.715031
vt 0.952457 0.757338
vt 0.882196 0.699024
vt 0.841601 0.748339
vt 0.828549 0.716814
vt 0.993276 0.653382
vt 0.882527 0.615440
vt 0.882538 0.615398
vt 0.882554 0.615452
vt 0.906173 0.601789
vt 0.882580 0.602736
vt 0.864230 0.587343
vt 0.883911 0.621047
vt 0.886095 0.628929
vt 0.881943 0.629544
vt 0.872562 0.627051
vt 0.875203 0.650752
vt 0.866558 0.615947
vt 0.846951 0.654450
vt 0.828549 0.621336
vt 0.879339 0.619117
vt 0.883449 0.608758
vt 0.889137 0.620236
vt 0.882600 0.615424
vt 0.910888 0.613026
vt 0.878237 0.615566
vt 0.879638 0.611175
vt 0.882521 0.615418
vt 0.913175 0.722089
vt 0.894219 0.683712
vt 0.882587 0.615390
vt 0.882558 0.615387
vt 0.882579 0.615448
vt 0.891485 0.626484
vt 0.889593 0.627309
vt 0.875566 0.604239
vt 0.841842 0.590552
vt 0.993979 0.740100
vt 0.984212 0.639958
s 0
usemtl Material.001
f 31/40/25 43/41/25 27/42/25
f 45/43/26 34/44/26 47/45/26
f 47/45/27 32/46/27 49/47/27
f 32/46/28 44/48/28 49/47/28
f 33/49/29 27/50/29 29/51/29
f 34/44/30 28/52/30 32/46/30
f 37/53/31 56/54/31 53/55/31
f 28/56/32 63/57/32 44/58/32
f 57/59/33 62/60/33 52/61/33
f 38/62/34 52/61/34 46/63/34
f 35/64/35 29/65/35 27/66/35
f 35/64/36 36/67/36 38/62/36
f 28/56/37 59/68/37 63/57/37
f 58/69/38 40/70/38 30/71/38
f 39/72/39 37/53/39 36/67/39
f 60/73/40 41/74/40 39/72/40
f 40/70/41 28/56/41 30/71/41
f 50/75/42 44/48/42 43/41/42
f 48/76/27 31/40/27 33/49/27
f 47/45/27 50/75/27 48/76/27
f 46/63/43 33/49/43 29/65/43
f 45/43/44 48/76/44 46/63/44
f 42/77/45 59/68/45 28/56/45
f 59/68/46 56/54/46 60/73/46
f 37/53/47 57/59/47 36/67/47
f 53/55/48 58/69/48 57/59/48
f 40/70/49 55/78/49 42/77/49
f 53/55/31 55/78/31 54/79/31
f 61/80/50 58/69/50 30/71/50
f 45/43/51 61/80/51 30/71/51
f 58/69/52 61/80/52 51/81/52
f 51/81/53 61/80/53 45/43/53
f 44/58/54 64/82/54 43/83/54
f 59/68/55 64/82/55 63/57/55
f 43/83/56 35/64/56 27/66/56
f 64/82/57 39/72/57 35/64/57
f 31/40/25 50/75/25 43/41/25
f 45/43/58 30/71/58 34/44/58
f 47/45/27 34/44/27 32/46/27
f 32/46/59 28/84/59 44/48/59
f 33/49/29 31/40/29 27/50/29
f 34/44/30 30/85/30 28/52/30
f 37/53/60 41/74/60 56/54/60
f 52/61/61 38/62/61 36/67/61
f 36/67/62 57/59/62 52/61/62
f 46/63/63 29/65/63 38/62/63
f 52/61/64 62/60/64 46/63/64
f 35/64/35 38/62/35 29/65/35
f 35/64/36 39/72/36 36/67/36
f 58/69/65 54/79/65 40/70/65
f 39/72/39 41/74/39 37/53/39
f 60/73/66 56/54/66 41/74/66
f 40/70/41 42/77/41 28/56/41
f 50/75/42 49/47/42 44/48/42
f 48/76/27 50/75/27 31/40/27
f 47/45/27 49/47/27 50/75/27
f 46/63/67 48/76/67 33/49/67
f 45/43/44 47/45/44 48/76/44
f 42/77/68 55/78/68 59/68/68
f 59/68/69 55/78/69 56/54/69
f 37/53/70 53/55/70 57/59/70
f 53/55/48 54/79/48 58/69/48
f 40/70/71 54/79/71 55/78/71
f 53/55/72 56/54/72 55/78/72
f 51/81/52 62/60/52 58/69/52
f 62/60/73 57/59/73 58/69/73
f 45/43/74 46/63/74 62/60/74
f 62/60/53 51/81/53 45/43/53
f 44/58/75 63/57/75 64/82/75
f 59/68/76 60/73/76 64/82/76
f 43/83/77 64/82/77 35/64/77
f 64/82/78 60/73/78 39/72/78
o Horn_R.001
v -0.239283 0.477350 0.412686
v -0.234097 0.697273 0.454192
v -0.151507 0.482015 0.443766
v -0.192477 0.699486 0.468929
v -0.180376 0.505296 0.272757
v -0.188102 0.650642 0.272757
v -0.112721 0.508893 0.296713
v -0.120447 0.654238 0.296713
v -0.268495 0.565262 0.512799
v -0.232735 0.654017 0.597078
v -0.307985 1.007111 0.567171
v -0.187400 0.569573 0.541514
v -0.289855 0.650980 0.576852
v -0.307010 1.008967 0.564740
v -0.309088 1.007052 0.566780
v -0.308490 1.008888 0.564216
v -0.287629 0.537815 0.396750
v -0.290970 0.600672 0.396750
v -0.113185 0.610122 0.459702
v -0.109844 0.547265 0.459702
v -0.083183 0.607633 0.308996
v -0.080608 0.559185 0.308996
v -0.220215 0.600349 0.260474
v -0.217640 0.551901 0.260474
v -0.132995 0.682440 0.503405
v -0.139408 0.627111 0.529821
v -0.307030 1.007763 0.566583
v -0.306641 1.008385 0.565796
v -0.309383 1.008240 0.564825
v -0.309518 1.007631 0.565702
v -0.183288 0.687798 0.566662
v -0.163128 0.720023 0.525876
v -0.305167 0.712473 0.475581
v -0.312154 0.680948 0.521031
v -0.131450 0.695773 0.497039
v -0.136117 0.655501 0.516267
v -0.295787 0.686323 0.439221
v -0.300689 0.644033 0.459412
vn -0.6595 -0.6338 -0.4042
vn 0.7551 0.6406 0.1397
vn 0.3329 0.0177 -0.9428
vn -0.7337 0.5618 -0.3822
vn 0.1059 -0.9827 -0.1517
vn 0.0337 0.9700 -0.2408
vn -0.2312 0.8157 0.5303
vn 0.1355 0.4463 -0.8846
vn 0.7755 0.1966 0.5999
vn 0.6190 -0.3762 0.6894
vn -0.1786 -0.7646 0.6193
vn -0.2328 -0.6187 0.7503
vn -0.0023 0.8116 -0.5843
vn 0.7276 0.4338 -0.5314
vn -0.3342 0.0086 0.9425
vn -0.9352 -0.0406 0.3518
vn 0.2908 0.3795 -0.8783
vn -0.8866 -0.0471 -0.4602
vn 0.8241 -0.5545 0.1160
vn 0.9796 0.0521 0.1941
vn -0.2221 0.2770 -0.9348
vn -0.9906 0.0263 -0.1340
vn 0.4313 0.1670 0.8866
vn 0.7475 0.2892 0.5980
vn -0.2312 0.8157 0.5302
vn 0.2559 0.8598 -0.4419
vn 0.3982 0.4366 -0.8068
vn 0.7426 0.2165 0.6337
vn 0.9395 0.0528 0.3386
vn -0.9917 -0.0527 -0.1173
vn -0.9692 -0.0052 -0.2463
vn -0.7863 -0.5596 0.2620
vn -0.9435 -0.3140 0.1056
vn 0.7476 0.6487 0.1423
vn -0.7088 0.6187 -0.3387
vn -0.2313 0.8157 0.5302
vn 0.5133 -0.2621 0.8172
vn 0.5653 -0.0891 0.8201
vn 0.5493 -0.5120 0.6604
vn 0.9400 0.0520 0.3371
vn 0.8900 0.4516 -0.0626
vn -0.9352 -0.0406 0.3519
vn 0.8240 -0.5545 0.1160
vn -0.6504 0.2109 -0.7297
vn -0.9906 0.0263 -0.1341
vn 0.4312 0.1670 0.8867
vn -0.2311 0.8158 0.5301
vn -0.2311 0.8157 0.5303
vn 0.7808 0.2410 0.5764
vn 0.9389 0.0499 0.3406
vn -0.9842 0.0310 -0.1741
vn -0.9854 -0.0247 -0.1686
vn -0.9465 -0.2422 0.2133
vn -0.8836 -0.4555 0.1085
vt 0.892256 0.723323
vt 0.931050 0.768351
vt 0.904270 0.776888
vt 0.887652 0.642456
vt 0.924268 0.676833
vt 0.905789 0.678083
vt 0.939002 0.698655
vt 0.926314 0.715031
vt 0.952457 0.757338
vt 0.882196 0.699024
vt 0.841601 0.748339
vt 0.828549 0.716814
vt 0.993276 0.653382
vt 0.882527 0.615440
vt 0.882538 0.615398
vt 0.882554 0.615452
vt 0.906173 0.601789
vt 0.882580 0.602736
vt 0.864230 0.587343
vt 0.883911 0.621047
vt 0.886095 0.628929
vt 0.881943 0.629544
vt 0.872562 0.627051
vt 0.875203 0.650752
vt 0.866558 0.615947
vt 0.846951 0.654450
vt 0.828549 0.621336
vt 0.879339 0.619117
vt 0.883449 0.608758
vt 0.889137 0.620236
vt 0.882600 0.615424
vt 0.910888 0.613026
vt 0.878237 0.615566
vt 0.879638 0.611175
vt 0.882521 0.615418
vt 0.913175 0.722089
vt 0.894219 0.683712
vt 0.882587 0.615390
vt 0.882558 0.615387
vt 0.882579 0.615448
vt 0.891485 0.626484
vt 0.889593 0.627309
vt 0.875566 0.604239
vt 0.841842 0.590552
vt 0.993979 0.740100
vt 0.984212 0.639958
s 0
usemtl Material.001
f 69/86/79 65/88/79 81/87/79
f 83/89/80 85/91/80 72/90/80
f 85/91/81 87/93/81 70/92/81
f 70/92/82 87/93/82 82/94/82
f 71/95/83 67/97/83 65/96/83
f 72/90/84 70/92/84 66/98/84
f 75/99/85 91/101/85 94/100/85
f 66/102/86 82/104/86 101/103/86
f 95/105/87 90/107/87 100/106/87
f 76/108/88 84/109/88 90/107/88
f 73/110/89 65/112/89 67/111/89
f 73/110/90 76/108/90 74/113/90
f 66/102/91 101/103/91 97/114/91
f 96/115/92 68/117/92 78/116/92
f 77/118/93 74/113/93 75/99/93
f 98/119/94 77/118/94 79/120/94
f 78/116/95 68/117/95 66/102/95
f 88/121/96 81/87/96 82/94/96
f 86/122/81 71/95/81 69/86/81
f 85/91/81 86/122/81 88/121/81
f 84/109/97 67/111/97 71/95/97
f 83/89/98 84/109/98 86/122/98
f 80/123/99 66/102/99 97/114/99
f 97/114/100 98/119/100 94/100/100
f 75/99/101 74/113/101 95/105/101
f 91/101/102 95/105/102 96/115/102
f 78/116/103 80/123/103 93/124/103
f 91/101/85 92/125/85 93/124/85
f 99/126/104 68/117/104 96/115/104
f 83/89/105 68/117/105 99/126/105
f 96/115/106 89/127/106 99/126/106
f 89/127/107 83/89/107 99/126/107
f 82/104/108 81/129/108 102/128/108
f 97/114/109 101/103/109 102/128/109
f 81/129/110 65/112/110 73/110/110
f 102/128/111 73/110/111 77/118/111
f 69/86/79 81/87/79 88/121/79
f 83/89/112 72/90/112 68/117/112
f 85/91/81 70/92/81 72/90/81
f 70/92/113 82/94/113 66/130/113
f 71/95/83 65/96/83 69/86/83
f 72/90/84 66/98/84 68/131/84
f 75/99/114 94/100/114 79/120/114
f 90/107/115 74/113/115 76/108/115
f 74/113/116 90/107/116 95/105/116
f 84/109/117 76/108/117 67/111/117
f 90/107/118 84/109/118 100/106/118
f 73/110/89 67/111/89 76/108/89
f 73/110/90 74/113/90 77/118/90
f 96/115/119 78/116/119 92/125/119
f 77/118/93 75/99/93 79/120/93
f 98/119/120 79/120/120 94/100/120
f 78/116/95 66/102/95 80/123/95
f 88/121/96 82/94/96 87/93/96
f 86/122/81 69/86/81 88/121/81
f 85/91/81 88/121/81 87/93/81
f 84/109/121 71/95/121 86/122/121
f 83/89/98 86/122/98 85/91/98
f 80/123/122 97/114/122 93/124/122
f 97/114/123 94/100/123 93/124/123
f 75/99/124 95/105/124 91/101/124
f 91/101/102 96/115/102 92/125/102
f 78/116/125 93/124/125 92/125/125
f 91/101/126 93/124/126 94/100/126
f 89/127/106 96/115/106 100/106/106
f 100/106/127 96/115/127 95/105/127
f 83/89/128 100/106/128 84/109/128
f 100/106/107 83/89/107 89/127/107
f 82/104/129 102/128/129 101/103/129
f 97/114/130 102/128/130 98/119/130
f 81/129/131 73/110/131 102/128/131
f 102/128/132 77/118/132 98/119/132
