# Blender 5.1.1
# www.blender.org
mtllib boss_body.mtl
o Body
v 0.118774 0.817167 -0.150405
v 0.149703 1.422139 -0.231193
v 0.212668 0.817167 0.140663
v 0.418052 1.676478 0.079856
v -0.116194 0.817167 -0.150405
v -0.152671 1.405196 -0.231193
v -0.209892 0.817167 0.140663
v -0.424107 1.676515 0.079856
v 0.039827 0.138622 -0.021105
v 0.036227 0.138622 -0.021105
v 0.036227 0.138622 -0.024705
v 0.039827 0.138622 -0.024705
v -0.042983 0.626322 -0.044287
v -0.205869 0.435477 0.240704
v 0.052928 0.435477 0.240704
v 0.247628 0.626322 -0.044287
v -0.042983 0.626322 -0.334898
v -0.205869 0.435477 -0.018093
v 0.247628 0.626322 -0.334898
v 0.052928 0.435477 -0.018093
v -0.025203 0.371862 0.071557
v -0.131146 0.308248 -0.020367
v -0.025203 0.371862 -0.102175
v -0.131146 0.308248 -0.109033
v 0.148529 0.371862 -0.102175
v -0.042481 0.308248 -0.109033
v -0.042481 0.308248 -0.020367
v 0.148529 0.371862 0.071557
v -0.069038 0.817167 0.210947
v 0.071815 0.817167 0.210946
v 0.104277 1.530879 0.312830
v -0.104276 1.530879 0.312830
v 0.080057 0.817167 -0.208535
v -0.027166 0.817167 -0.208535
v -0.104277 1.530879 -0.308724
v 0.104276 1.530879 -0.308724
v 0.037427 0.138622 -0.021105
v 0.038627 0.138622 -0.021105
v 0.038627 0.138622 -0.024705
v 0.037427 0.138622 -0.024705
v 0.105097 0.626322 -0.334898
v -0.032539 0.626322 -0.334898
v -0.033337 0.435477 -0.018093
v -0.119603 0.435477 -0.018093
v 0.053887 0.626322 -0.044287
v 0.150758 0.626322 -0.044287
v -0.119603 0.435477 0.240704
v -0.033337 0.435477 0.240704
v 0.090618 0.371862 -0.102175
v 0.032708 0.371862 -0.102175
v -0.072036 0.308248 -0.109033
v -0.101591 0.308248 -0.109033
v 0.032708 0.371862 0.071557
v 0.090619 0.371862 0.071557
v -0.101591 0.308248 -0.020367
v -0.072036 0.308248 -0.020367
v 0.135324 1.055092 -0.175916
v 0.217747 1.292975 -0.220848
v 0.302485 1.292975 0.208744
v 0.145659 1.055092 0.165337
v -0.302485 1.292975 0.208745
v -0.154047 1.056398 0.164227
v -0.218009 1.292975 -0.220848
v -0.135819 1.055092 -0.175915
v -0.100828 1.292975 -0.298379
v -0.081407 1.055092 -0.240620
v 0.100828 1.292975 -0.298379
v 0.081131 1.055092 -0.240620
v 0.100828 1.292975 0.302485
v 0.081132 1.055092 0.243568
v -0.100828 1.292975 0.302485
v -0.081407 1.055092 0.243568
v 0.164494 0.817167 0.070093
v 0.164494 0.817167 -0.070760
v 0.267497 1.498883 -0.104277
v 0.312830 1.556534 0.104276
v -0.161718 0.817167 -0.070760
v -0.161718 0.817167 0.070093
v -0.312830 1.530879 0.104277
v -0.276483 1.477621 -0.104276
v 0.036227 0.138622 -0.023505
v 0.036227 0.138622 -0.022305
v 0.039827 0.138622 -0.022305
v 0.039827 0.138622 -0.023505
v 0.247628 0.626322 -0.141157
v 0.247628 0.626322 -0.238028
v 0.052928 0.435477 0.154438
v 0.052928 0.435477 0.068173
v -0.042983 0.626322 -0.238028
v -0.042983 0.626322 -0.141157
v -0.205869 0.435477 0.068173
v -0.205869 0.435477 0.154438
v 0.148529 0.371862 0.013646
v 0.148529 0.371862 -0.044264
v -0.042481 0.308248 -0.049923
v -0.042481 0.308248 -0.079478
v -0.025203 0.371862 -0.044264
v -0.025203 0.371862 0.013646
v -0.131146 0.308248 -0.079478
v -0.131146 0.308248 -0.049923
v 0.038627 0.138622 -0.022305
v 0.038627 0.138622 -0.023505
v 0.037427 0.138622 -0.022305
v 0.037427 0.138622 -0.023505
v -0.104277 1.530879 0.104277
v -0.104277 1.530879 -0.104277
v 0.104277 1.530879 0.104277
v 0.104277 1.530879 -0.104277
v -0.188354 1.055092 0.081030
v -0.188354 1.055092 -0.081508
v -0.302485 1.292975 0.100828
v -0.302485 1.292975 -0.100828
v 0.188079 1.055092 -0.081508
v 0.188079 1.055092 0.081030
v 0.302485 1.292975 -0.100828
v 0.302485 1.292975 0.100828
vn 0.7656 -0.2628 -0.5872
vn -0.5182 0.0585 0.8532
vn -0.7219 0.1912 -0.6650
vn 0.7181 0.0874 -0.6905
vn 0.6101 0.6962 -0.3781
vn -0.0000 -1.0000 -0.0000
vn -0.0000 -0.0043 1.0000
vn -0.7118 -0.7024 -0.0000
vn -0.0000 -0.4452 -0.8954
vn 0.8997 0.4366 -0.0000
vn 0.7675 0.6095 -0.1988
vn 0.7000 -0.7141 -0.0000
vn -0.4301 0.5229 -0.7359
vn -0.0000 -0.8566 -0.5160
vn -0.8822 -0.3967 -0.2538
vn -0.7606 0.6492 -0.0000
vn 0.1984 -0.7145 0.6709
vn -0.0000 0.8309 0.5564
vn 0.5540 0.8325 -0.0000
vn 0.3160 -0.9488 -0.0000
vn -0.0000 0.7975 -0.6034
vn -0.0000 0.1072 -0.9942
vn -0.3321 -0.9432 -0.0000
vn -0.5148 0.8573 -0.0000
vn -0.0000 -0.9360 0.3520
vn -0.0000 -0.8223 0.5691
vn -0.1711 -0.7974 0.5787
vn -0.0000 -0.8009 0.5988
vn 0.2272 0.6684 -0.7083
vn -0.0000 0.5521 -0.8338
vn -0.6591 0.6448 -0.3872
vn -0.0000 1.0000 -0.0000
vn -0.7148 0.0853 -0.6941
vn -0.0000 -0.0434 -0.9991
vn 0.5217 0.0624 0.8508
vn -0.0000 -0.0434 0.9991
vn -0.0000 -0.1358 0.9907
vn -0.0000 -0.2404 0.9707
vn 0.5858 -0.0265 0.8100
vn 0.5069 -0.3568 0.7847
vn -0.0000 -0.1336 -0.9910
vn -0.0000 -0.2360 -0.9718
vn -0.6387 -0.1894 -0.7458
vn -0.6108 -0.2895 -0.7369
vn 0.7934 -0.1020 -0.6001
vn 0.6117 -0.2902 -0.7359
vn -0.8648 -0.1212 -0.4872
vn -0.7768 -0.3876 -0.4963
vn -0.5735 -0.0441 0.8180
vn -0.5011 -0.3498 0.7915
vn 0.9949 0.0936 -0.0370
vn 0.8428 -0.5052 0.1860
vn 0.7758 -0.3881 -0.4975
vn 0.9012 -0.4334 -0.0000
vn 0.8650 -0.1103 -0.4894
vn 0.9951 -0.0986 -0.0000
vn -0.8550 -0.4944 0.1569
vn -0.9016 -0.4326 -0.0000
vn -0.9936 0.0673 -0.0902
vn -0.9938 -0.1113 -0.0000
vn 0.4044 0.8203 -0.4044
vn -0.1372 0.9810 -0.1372
vn -0.9379 -0.2487 -0.2419
vn -0.8491 -0.5283 -0.0000
vn 0.8297 0.5045 -0.2387
vn 0.9168 0.3994 -0.0000
vn -0.4196 0.8514 -0.3148
vn 0.0169 0.9902 -0.1387
vn -0.7825 -0.2786 -0.5569
vn -0.9950 0.0369 -0.0929
vn 0.7273 0.1966 -0.6576
vn 0.9918 0.0521 -0.1169
vt 0.365242 0.535455
vt 0.314908 0.543279
vt 0.311418 0.499995
vt 0.361149 0.484688
vt 0.310821 0.396124
vt 0.268509 0.424486
vt 0.247054 0.386731
vt 0.285657 0.351842
vt 0.202618 0.292843
vt 0.176255 0.336429
vt 0.140856 0.311278
vt 0.161098 0.263344
vt 0.060905 0.244964
vt 0.055432 0.295608
vt 0.012720 0.287772
vt 0.010809 0.235774
vt 0.125953 0.407228
vt 0.100802 0.442628
vt 0.065402 0.417477
vt 0.090553 0.382077
vt 0.335740 0.145958
vt 0.333894 0.150687
vt 0.329128 0.148993
vt 0.330974 0.144264
vt 0.357287 0.147989
vt 0.347119 0.144618
vt 0.348965 0.139889
vt 0.363136 0.137835
vt 0.335377 0.162546
vt 0.338661 0.152381
vt 0.343428 0.154075
vt 0.345587 0.168296
vt 0.320806 0.140893
vt 0.314956 0.151047
vt 0.342716 0.126336
vt 0.339432 0.136501
vt 0.334665 0.134807
vt 0.332505 0.120586
vt 0.368989 0.045015
vt 0.359137 0.075510
vt 0.321708 0.049482
vt 0.315229 0.006819
vt 0.349284 0.106006
vt 0.328187 0.092144
vt 0.239465 0.113923
vt 0.269968 0.124037
vt 0.244098 0.161315
vt 0.201583 0.167475
vt 0.300471 0.134151
vt 0.286613 0.155154
vt 0.309103 0.243867
vt 0.318956 0.213372
vt 0.356385 0.239401
vt 0.362863 0.282063
vt 0.328808 0.182877
vt 0.349906 0.196738
vt 0.438627 0.174959
vt 0.408124 0.164845
vt 0.433994 0.127568
vt 0.476509 0.121407
vt 0.377622 0.154731
vt 0.391480 0.133728
vt 0.346000 0.116171
vt 0.330346 0.106365
vt 0.310638 0.137522
vt 0.300785 0.153100
vt 0.332093 0.172711
vt 0.347747 0.182517
vt 0.367454 0.151360
vt 0.377308 0.135782
vt 0.351437 0.158143
vt 0.357600 0.166939
vt 0.363764 0.175735
vt 0.326656 0.130740
vt 0.320492 0.121943
vt 0.314329 0.113147
vt 0.382255 0.202123
vt 0.400745 0.228511
vt 0.295838 0.086759
vt 0.277347 0.060371
vt 0.332819 0.139536
vt 0.345273 0.149347
vt 0.337586 0.141230
vt 0.151104 0.371829
vt 0.115705 0.346678
vt 0.098144 0.303443
vt 0.111002 0.254154
vt 0.289963 0.462240
vt 0.335985 0.440406
vt 0.428028 0.396736
vt 0.382006 0.418571
vt 0.353133 0.367762
vt 0.395445 0.339400
vt 0.460610 0.454073
vt 0.410879 0.469380
vt 0.136718 0.155576
vt 0.123860 0.204865
vt 0.066379 0.194321
vt 0.071853 0.143677
vt 0.181341 0.215409
vt 0.008899 0.183776
vt 0.006988 0.131778
vt 0.255343 0.205671
vt 0.228981 0.249257
vt 0.324260 0.316953
vt 0.465910 0.519807
vt 0.415576 0.527631
vt 0.424969 0.644133
vt 0.373428 0.636990
vt 0.369335 0.586223
vt 0.420272 0.585882
vt 0.476509 0.651275
vt 0.471210 0.585541
vt 0.244138 0.322343
vt 0.276620 0.283105
vt 0.221903 0.422131
vt 0.196752 0.457530
vt 0.161353 0.432379
vt 0.186504 0.396980
vt 0.211655 0.361580
vt 0.340507 0.147652
vt 0.342352 0.142924
vt 0.344198 0.138195
vt 0.325166 0.156796
vt 0.316439 0.162906
vt 0.307711 0.169015
vt 0.352926 0.132086
vt 0.361654 0.125976
vt 0.370382 0.119867
vt 0.281527 0.187343
vt 0.396566 0.101539
vt 0.422749 0.083211
vt 0.171601 0.492930
vt 0.136201 0.467779
vt 0.321887 0.629848
vt 0.318397 0.586563
s 0
usemtl Material.001
f 116/1/1 76/2/1 4/3/1 59/4/1
f 71/5/2 32/6/2 8/7/2 61/8/2
f 112/9/3 80/10/3 6/11/3 63/12/3
f 67/13/4 36/14/4 2/15/4 58/16/4
f 108/17/5 75/18/5 2/19/5 36/20/5
f 104/21/6 81/22/6 11/23/6 40/24/6
f 56/25/7 38/26/7 9/27/7 27/28/7
f 100/29/8 82/30/8 10/31/8 22/32/8
f 52/33/9 40/24/9 11/23/9 24/34/9
f 96/35/10 84/36/10 12/37/10 26/38/10
f 74/39/11 86/40/11 19/41/11 1/42/11
f 86/40/12 88/43/12 20/44/12 19/41/12
f 34/45/13 42/46/13 17/47/13 5/48/13
f 42/46/14 44/49/14 18/50/14 17/47/14
f 78/51/15 90/52/15 13/53/15 7/54/15
f 90/52/16 92/55/16 14/56/16 13/53/16
f 30/57/17 46/58/17 16/59/17 3/60/17
f 46/58/18 48/61/18 15/62/18 16/59/18
f 88/43/19 94/63/19 25/64/19 20/44/19
f 94/63/20 96/35/20 26/38/20 25/64/20
f 44/49/21 50/65/21 23/66/21 18/50/21
f 50/65/22 52/33/22 24/34/22 23/66/22
f 92/55/23 98/67/23 21/68/23 14/56/23
f 98/67/24 100/29/24 22/32/24 21/68/24
f 48/61/25 54/69/25 28/70/25 15/62/25
f 54/69/26 56/25/26 27/28/26 28/70/26
f 21/68/26 22/32/26 55/71/26 53/72/26
f 53/72/26 55/71/26 56/25/26 54/69/26
f 14/56/25 21/68/25 53/72/25 47/73/25
f 47/73/25 53/72/25 54/69/25 48/61/25
f 25/64/22 26/38/22 51/74/22 49/75/22
f 49/75/22 51/74/22 52/33/22 50/65/22
f 20/44/21 25/64/21 49/75/21 43/76/21
f 43/76/21 49/75/21 50/65/21 44/49/21
f 13/53/18 14/56/18 47/73/18 45/77/18
f 45/77/18 47/73/18 48/61/18 46/58/18
f 7/54/27 13/53/27 45/77/27 29/78/27
f 29/78/28 45/77/28 46/58/28 30/57/28
f 19/41/14 20/44/14 43/76/14 41/79/14
f 41/79/14 43/76/14 44/49/14 42/46/14
f 1/42/29 19/41/29 41/79/29 33/80/29
f 33/80/30 41/79/30 42/46/30 34/45/30
f 26/38/9 12/37/9 39/81/9 51/74/9
f 51/74/9 39/81/9 40/24/9 52/33/9
f 22/32/7 10/31/7 37/82/7 55/71/7
f 55/71/7 37/82/7 38/26/7 56/25/7
f 84/36/6 102/83/6 39/81/6 12/37/6
f 102/83/6 104/21/6 40/24/6 39/81/6
f 80/10/31 106/84/31 35/85/31 6/11/31
f 106/84/32 108/17/32 36/20/32 35/85/32
f 63/12/33 6/11/33 35/86/33 65/87/33
f 65/87/34 35/86/34 36/14/34 67/13/34
f 59/4/35 4/3/35 31/88/35 69/89/35
f 69/89/36 31/88/36 32/6/36 71/5/36
f 30/90/37 70/91/37 72/92/37 29/93/37
f 70/91/38 69/89/38 71/5/38 72/92/38
f 3/94/39 60/95/39 70/91/39 30/90/39
f 60/95/40 59/4/40 69/89/40 70/91/40
f 34/96/41 66/97/41 68/98/41 33/99/41
f 66/97/42 65/87/42 67/13/42 68/98/42
f 5/48/43 64/100/43 66/97/43 34/96/43
f 64/100/44 63/12/44 65/87/44 66/97/44
f 33/99/45 68/98/45 57/101/45 1/102/45
f 68/98/46 67/13/46 58/16/46 57/101/46
f 77/103/47 110/104/47 64/100/47 5/48/47
f 110/104/48 112/9/48 63/12/48 64/100/48
f 29/93/49 72/92/49 62/105/49 7/54/49
f 72/92/50 71/5/50 61/8/50 62/105/50
f 73/106/51 114/107/51 60/95/51 3/94/51
f 114/107/52 116/1/52 59/4/52 60/95/52
f 57/108/53 58/109/53 115/110/53 113/111/53
f 113/111/54 115/110/54 116/1/54 114/107/54
f 1/112/55 57/108/55 113/111/55 74/113/55
f 74/113/56 113/111/56 114/107/56 73/106/56
f 62/105/57 61/8/57 111/114/57 109/115/57
f 109/115/58 111/114/58 112/9/58 110/104/58
f 7/54/59 62/105/59 109/115/59 78/51/59
f 78/51/60 109/115/60 110/104/60 77/103/60
f 32/116/32 31/117/32 107/118/32 105/119/32
f 105/119/32 107/118/32 108/17/32 106/84/32
f 8/7/61 32/116/61 105/119/61 79/120/61
f 79/120/62 105/119/62 106/84/62 80/10/62
f 38/26/6 37/82/6 103/121/6 101/122/6
f 101/122/6 103/121/6 104/21/6 102/83/6
f 9/27/6 38/26/6 101/122/6 83/123/6
f 83/123/6 101/122/6 102/83/6 84/36/6
f 23/66/24 24/34/24 99/124/24 97/125/24
f 97/125/24 99/124/24 100/29/24 98/67/24
f 18/50/23 23/66/23 97/125/23 91/126/23
f 91/126/23 97/125/23 98/67/23 92/55/23
f 28/70/20 27/28/20 95/127/20 93/128/20
f 93/128/20 95/127/20 96/35/20 94/63/20
f 15/62/19 28/70/19 93/128/19 87/129/19
f 87/129/19 93/128/19 94/63/19 88/43/19
f 17/47/16 18/50/16 91/126/16 89/130/16
f 89/130/16 91/126/16 92/55/16 90/52/16
f 5/48/63 17/47/63 89/130/63 77/103/63
f 77/103/64 89/130/64 90/52/64 78/51/64
f 16/59/12 15/62/12 87/129/12 85/131/12
f 85/131/12 87/129/12 88/43/12 86/40/12
f 3/60/65 16/59/65 85/131/65 73/132/65
f 73/132/66 85/131/66 86/40/66 74/39/66
f 27/28/10 9/27/10 83/123/10 95/127/10
f 95/127/10 83/123/10 84/36/10 96/35/10
f 24/34/8 11/23/8 81/22/8 99/124/8
f 99/124/8 81/22/8 82/30/8 100/29/8
f 37/82/6 10/31/6 82/30/6 103/121/6
f 103/121/6 82/30/6 81/22/6 104/21/6
f 31/117/67 4/133/67 76/134/67 107/118/67
f 107/118/68 76/134/68 75/18/68 108/17/68
f 61/8/69 8/7/69 79/120/69 111/114/69
f 111/114/70 79/120/70 80/10/70 112/9/70
f 58/109/71 2/135/71 75/136/71 115/110/71
f 115/110/72 75/136/72 76/2/72 116/1/72
