# Blender 5.1.1
# www.blender.org
mtllib player_body.mtl
o Cube.001
v -0.322088 -0.363354 0.322088
v -0.322088 0.378068 0.322088
v -0.322088 -0.363354 -0.322088
v -0.322088 0.378068 -0.322088
v 0.322088 -0.363354 0.322088
v 0.322088 0.378068 0.322088
v 0.322088 -0.363354 -0.322088
v 0.322088 0.378068 -0.322088
v -0.369069 -0.417428 -0.191095
v -0.392669 -0.444590 -0.000000
v -0.369069 -0.417428 0.191095
v -0.369069 -0.212586 0.369069
v -0.392669 0.007357 0.392669
v -0.369069 0.227300 0.369069
v -0.369069 0.432142 0.191095
v -0.392669 0.459304 0.000000
v -0.369069 0.432142 -0.191095
v -0.369069 0.227300 -0.369069
v -0.392669 0.007357 -0.392669
v -0.369069 -0.212586 -0.369069
v 0.191095 -0.417428 -0.369069
v 0.000000 -0.444590 -0.392669
v -0.191095 -0.417428 -0.369069
v -0.069546 0.432142 -0.369069
v 0.083194 0.625840 0.023016
v 0.055847 0.432142 -0.369069
v 0.369069 0.227300 -0.369069
v 0.392669 0.007357 -0.392669
v 0.369069 -0.212586 -0.369069
v 0.369069 -0.417428 0.191095
v 0.392669 -0.444590 0.000000
v 0.369069 -0.417428 -0.191095
v 0.369069 0.432142 -0.191095
v 0.392669 0.459304 0.000000
v 0.369069 0.432142 0.191095
v 0.369069 0.227300 0.369069
v 0.392669 0.007357 0.392669
v 0.369069 -0.212586 0.369069
v -0.191095 -0.417428 0.369069
v 0.191095 -0.417428 0.369069
v 0.055847 0.432142 0.369069
v 0.000000 0.459304 0.392669
v -0.069546 0.432142 0.369069
v -0.469597 -0.227049 0.203661
v -0.503635 0.007357 0.214601
v -0.469597 0.241763 0.203661
v -0.503635 -0.239640 -0.000000
v -0.540789 0.007357 0.000000
v -0.503635 0.254355 0.000000
v -0.469597 -0.227049 -0.203661
v -0.503635 0.007357 -0.214601
v -0.469597 0.241763 -0.203661
v -0.203661 -0.227049 -0.469597
v -0.093052 0.007357 -0.503635
v -0.082112 0.241763 -0.469597
v 0.000000 -0.239640 -0.503635
v 0.000000 0.007357 -0.540789
v -0.065706 0.470960 0.453882
v 0.203661 -0.227049 -0.469597
v 0.079354 0.007357 -0.503635
v 0.068413 0.241763 -0.469597
v 0.469597 -0.227049 -0.203661
v 0.503635 0.007357 -0.214601
v 0.469597 0.241763 -0.203661
v 0.503635 -0.239640 0.000000
v 0.540789 0.007357 0.000000
v 0.503635 0.254355 -0.000000
v 0.469597 -0.227049 0.203661
v 0.503635 0.007357 0.214601
v 0.469597 0.241763 0.203661
v 0.203661 -0.227049 0.469597
v 0.214601 -0.094135 0.503635
v 0.203661 0.241763 0.469597
v 0.000000 0.122561 0.555932
v -0.203661 -0.227049 0.469597
v -0.214601 -0.094135 0.503635
v -0.203661 0.241763 0.469597
v 0.068413 0.547846 -0.203661
v 0.083194 0.013166 -0.560818
v -0.082112 0.547846 -0.203661
v 0.079354 0.587022 0.000000
v -0.078272 0.586664 0.226677
v -0.093052 0.587022 -0.000000
v 0.068413 0.547846 0.203661
v -0.089212 0.625840 0.023016
v -0.082112 0.547846 0.203661
v -0.063148 0.633804 -0.426293
v 0.006842 0.659234 -0.450499
v 0.062219 0.634104 -0.423749
v 0.063527 0.629612 0.553544
v 0.007680 0.656775 0.577143
v -0.061866 0.629612 0.553544
v -0.085372 0.010573 -0.726647
v -0.073501 0.402236 -0.622216
v 0.007680 0.010573 -0.763801
v 0.009278 0.412366 -0.655449
v 0.087034 0.010573 -0.726647
v 0.076992 0.402597 -0.619162
v 0.076093 0.745317 -0.197468
v 0.007680 0.784492 -0.208408
v -0.074432 0.745317 -0.197468
v 0.087034 0.784492 0.006193
v 0.007680 0.827256 0.006193
v -0.085372 0.784492 0.006193
v 0.076093 0.745317 0.209853
v 0.007680 0.784492 0.220793
v -0.074432 0.745317 0.209853
v 0.003840 0.013166 -0.597972
v -0.066347 0.473055 -0.377761
v -0.078272 0.586664 -0.180644
v 0.003840 0.498122 0.477481
v 0.072703 0.262262 -0.524460
v 0.059687 0.470960 0.453882
v 0.072253 0.586664 0.226677
v 0.072253 0.586664 -0.180644
v 0.059033 0.473206 -0.376489
v -0.089212 0.013166 -0.560818
v -0.077807 0.262082 -0.525987
v 0.019441 -0.160987 -0.678631
v 0.021138 -0.162133 -0.751928
v -0.055066 -0.162133 -0.751928
v -0.013937 -0.162133 -0.768350
v -0.015634 -0.160987 -0.695054
v -0.056763 -0.160987 -0.678631
v 0.257372 0.285559 -0.215137
v 0.257372 -0.250439 -0.215137
v 0.257372 0.285559 0.320861
v 0.257372 -0.250439 0.320861
v -0.278626 0.285559 -0.215137
v -0.278626 -0.250439 -0.215137
v -0.278626 0.285559 0.320861
v -0.278626 -0.250439 0.320861
v -0.317718 -0.289531 -0.106142
v -0.337354 -0.309167 0.052862
v -0.317718 -0.289531 0.211866
v 0.148377 -0.289531 -0.254229
v -0.010627 -0.309167 -0.273865
v -0.169631 -0.289531 -0.254229
v 0.296464 0.176564 -0.254229
v 0.316100 0.017560 -0.273865
v 0.296464 -0.141444 -0.254229
v -0.317718 -0.141444 0.359953
v -0.337354 0.017560 0.379589
v -0.317718 0.176564 0.359953
v 0.296464 0.176564 0.359953
v 0.316100 0.017560 0.379589
v 0.296464 -0.141444 0.359953
v -0.317718 0.176564 -0.254229
v -0.337354 0.017560 -0.273865
v -0.317718 -0.141444 -0.254229
v 0.148377 0.324651 0.359953
v -0.010627 0.344287 0.379589
v -0.169631 0.324651 0.359953
v 0.296464 0.324651 -0.106142
v 0.316100 0.344287 0.052862
v 0.296464 0.324651 0.211866
v -0.169631 -0.289531 0.359953
v -0.010627 -0.309167 0.379589
v 0.148377 -0.289531 0.359953
v -0.317718 0.324651 0.211866
v -0.337354 0.344287 0.052862
v -0.317718 0.324651 -0.106142
v -0.169631 0.324651 -0.254229
v -0.010627 0.344287 -0.273865
v 0.148377 0.324651 -0.254229
v 0.296464 -0.289531 0.211866
v 0.316100 -0.309167 0.052862
v 0.296464 -0.289531 -0.106142
v 0.158832 0.408297 -0.116598
v -0.010627 0.436619 -0.125701
v -0.180087 0.408297 -0.116598
v 0.167936 0.436619 0.052862
v -0.010627 0.467534 0.052862
v -0.189190 0.436619 0.052862
v 0.158832 0.408297 0.222321
v -0.010627 0.436619 0.231424
v -0.180087 0.408297 0.222321
v 0.158832 -0.151900 0.443599
v 0.167936 0.017560 0.471920
v 0.158832 0.187019 0.443599
v -0.010627 -0.161003 0.471920
v -0.010627 0.017560 0.502835
v -0.010627 0.196123 0.471920
v -0.180087 -0.151900 0.443599
v -0.189190 0.017560 0.471920
v -0.180087 0.187019 0.443599
v -0.401364 -0.151900 0.222321
v -0.429686 0.017560 0.231424
v -0.401364 0.187019 0.222321
v -0.429686 -0.161003 0.052862
v -0.460601 0.017560 0.052862
v -0.429686 0.196123 0.052862
v -0.401364 -0.151900 -0.116598
v -0.429686 0.017560 -0.125701
v -0.401364 0.187019 -0.116598
v -0.180087 -0.373177 -0.116598
v -0.010627 -0.401499 -0.125701
v 0.158832 -0.373177 -0.116598
v -0.189190 -0.401499 0.052862
v -0.010627 -0.432414 0.052862
v 0.167936 -0.401499 0.052862
v -0.180087 -0.373177 0.222321
v -0.010627 -0.401499 0.231424
v 0.158832 -0.373177 0.222321
v 0.380110 -0.151900 -0.116598
v 0.408431 0.017560 -0.125701
v 0.380110 0.187019 -0.116598
v 0.408431 -0.161003 0.052862
v 0.439346 0.017560 0.052862
v 0.408431 0.196123 0.052862
v 0.380110 -0.151900 0.222321
v 0.408431 0.017560 0.231424
v 0.380110 0.187019 0.222321
v -0.180087 -0.151900 -0.337875
v -0.189190 0.017560 -0.366197
v -0.180087 0.187019 -0.337875
v -0.010627 -0.161003 -0.366197
v -0.010627 0.017560 -0.397112
v -0.010627 0.196123 -0.366197
v 0.158832 -0.151900 -0.337875
v 0.167936 0.017560 -0.366197
v 0.158832 0.187019 -0.337875
vn -0.9742 -0.1479 0.1703
vn -0.9742 0.1479 0.1703
vn -0.9742 -0.1479 -0.1703
vn -0.9742 0.1479 -0.1703
vn -0.7714 -0.4174 0.4804
vn -0.8396 -0.1463 0.5231
vn -0.8396 0.1463 0.5231
vn -0.7714 0.4174 0.4804
vn -0.8660 0.4688 0.1737
vn -0.8660 0.4688 -0.1737
vn -0.7714 0.4174 -0.4804
vn -0.8396 0.1463 -0.5231
vn -0.8396 -0.1463 -0.5231
vn -0.7714 -0.4174 -0.4804
vn -0.8660 -0.4688 -0.1737
vn -0.8660 -0.4688 0.1737
vn -0.2360 -0.0889 -0.9677
vn 0.9984 -0.0293 -0.0480
vn 0.2465 -0.0792 -0.9659
vn -0.9978 0.0305 0.0595
vn -0.4804 -0.4174 -0.7714
vn -0.4147 -0.0359 -0.9093
vn -0.3388 0.1437 -0.9298
vn -0.2886 0.4220 -0.8594
vn 0.9988 0.0223 0.0430
vn -0.0802 -0.5288 0.8449
vn 0.2757 0.4216 -0.8638
vn 0.3253 0.1433 -0.9347
vn 0.4046 -0.0263 -0.9141
vn 0.4804 -0.4174 -0.7714
vn 0.1737 -0.4688 -0.8660
vn -0.1737 -0.4688 -0.8660
vn 0.9742 -0.1479 -0.1703
vn 0.9742 0.1479 -0.1703
vn 0.9742 -0.1479 0.1703
vn 0.9742 0.1479 0.1703
vn 0.7714 -0.4174 -0.4804
vn 0.8396 -0.1463 -0.5231
vn 0.8396 0.1463 -0.5231
vn 0.7714 0.4174 -0.4804
vn 0.8660 0.4688 -0.1737
vn 0.8660 0.4688 0.1737
vn 0.7714 0.4174 0.4804
vn 0.8396 0.1463 0.5231
vn 0.8396 -0.1463 0.5231
vn 0.7714 -0.4174 0.4804
vn 0.8660 -0.4688 0.1737
vn 0.8660 -0.4688 -0.1737
vn 0.4804 -0.4174 0.7714
vn 0.5600 -0.1867 0.8072
vn 0.3482 0.5324 0.7715
vn 0.1915 0.4817 0.8552
vn -0.1850 0.4770 0.8592
vn -0.3586 0.5243 0.7724
vn -0.5600 -0.1867 0.8072
vn -0.4804 -0.4174 0.7714
vn 0.9986 -0.0189 0.0500
vn 0.4239 -0.0292 -0.9053
vn -0.9982 0.0098 -0.0596
vn 0.0974 -0.5311 0.8417
vn 0.2948 0.8024 -0.5189
vn 0.9974 0.0088 0.0712
vn 0.9990 -0.0322 0.0309
vn -0.3082 0.7975 -0.5187
vn -0.3800 0.9062 -0.1855
vn -0.3800 0.9062 0.1855
vn -0.3082 0.7975 0.5187
vn 0.9984 -0.0314 -0.0473
vn -0.9992 0.0386 -0.0108
vn 0.2948 0.8024 0.5189
vn 0.3655 0.9122 0.1853
vn 0.3655 0.9122 -0.1853
vn -0.3724 0.2463 -0.8948
vn 0.4465 0.2392 -0.8622
vn -0.4007 0.5923 -0.6990
vn 0.4971 0.5673 -0.6565
vn 0.4872 0.8545 -0.1801
vn -0.4259 0.8857 -0.1847
vn 0.4872 0.8545 0.1801
vn -0.4259 0.8857 0.1847
vn 0.5154 0.7583 -0.3991
vn -0.4352 0.8005 -0.4121
vn -0.4390 0.8462 0.3021
vn 0.5122 0.8083 0.2903
vn -0.9988 0.0115 0.0486
vn -0.9992 0.0342 0.0193
vn -0.9982 0.0181 -0.0571
vn 0.3237 -0.4881 0.8106
vn 0.0458 -0.9941 -0.0979
vn -0.9860 0.1455 -0.0810
vn -0.9959 0.0826 -0.0371
vn -0.9977 0.0055 0.0671
vn -0.9968 0.0545 -0.0590
vn 0.9963 -0.0842 -0.0177
vn 0.9947 -0.1027 0.0031
vn 0.9935 -0.0055 0.1138
vn -0.2517 -0.8756 0.4122
vn -0.9843 0.1115 -0.1370
vn -0.0414 -0.9937 -0.1037
vn 0.9927 -0.1165 0.0309
vn 0.2131 -0.8920 0.3986
vn 0.9963 0.0325 0.0799
vn -0.9961 0.0600 0.0650
vn 0.9964 -0.0754 -0.0390
vn 0.0063 -0.9999 0.0158
vn -0.0072 -0.9999 0.0155
vn -0.3856 -0.4160 0.8236
vn -0.9852 -0.1699 -0.0202
vn 0.9326 -0.3598 0.0272
vn -0.3699 0.0707 -0.9264
vn 0.1697 0.9708 -0.1697
vn -0.1697 0.9708 -0.1697
vn 0.1697 0.9708 0.1697
vn -0.1697 0.9708 0.1697
vn 0.4674 0.7504 -0.4674
vn 0.1678 0.8367 -0.5213
vn -0.1678 0.8367 -0.5213
vn -0.4674 0.7504 -0.4674
vn -0.5213 0.8367 -0.1678
vn -0.5213 0.8367 0.1678
vn -0.4674 0.7504 0.4674
vn -0.1678 0.8367 0.5213
vn 0.1678 0.8367 0.5213
vn 0.4674 0.7504 0.4674
vn 0.5213 0.8367 0.1678
vn 0.5213 0.8367 -0.1678
vn 0.1697 -0.1697 0.9708
vn 0.1697 0.1697 0.9708
vn -0.1697 -0.1697 0.9708
vn -0.1697 0.1697 0.9708
vn 0.4674 -0.4674 0.7504
vn 0.5213 -0.1678 0.8367
vn 0.5213 0.1678 0.8367
vn 0.4674 0.4674 0.7504
vn 0.1678 0.5213 0.8367
vn -0.1678 0.5213 0.8367
vn -0.4674 0.4674 0.7504
vn -0.5213 0.1678 0.8367
vn -0.5213 -0.1678 0.8367
vn -0.4674 -0.4674 0.7504
vn -0.1678 -0.5213 0.8367
vn 0.1678 -0.5213 0.8367
vn -0.9708 -0.1697 0.1697
vn -0.9708 0.1697 0.1697
vn -0.9708 -0.1697 -0.1697
vn -0.9708 0.1697 -0.1697
vn -0.7504 -0.4674 0.4674
vn -0.8367 -0.1678 0.5213
vn -0.8367 0.1678 0.5213
vn -0.7504 0.4674 0.4674
vn -0.8367 0.5213 0.1678
vn -0.8367 0.5213 -0.1678
vn -0.7504 0.4674 -0.4674
vn -0.8367 0.1678 -0.5213
vn -0.8367 -0.1678 -0.5213
vn -0.7504 -0.4674 -0.4674
vn -0.8367 -0.5213 -0.1678
vn -0.8367 -0.5213 0.1678
vn -0.1697 -0.9708 -0.1697
vn 0.1697 -0.9708 -0.1697
vn -0.1697 -0.9708 0.1697
vn 0.1697 -0.9708 0.1697
vn -0.4674 -0.7504 -0.4674
vn -0.1678 -0.8367 -0.5213
vn 0.1678 -0.8367 -0.5213
vn 0.4674 -0.7504 -0.4674
vn 0.5213 -0.8367 -0.1678
vn 0.5213 -0.8367 0.1678
vn 0.4674 -0.7504 0.4674
vn 0.1678 -0.8367 0.5213
vn -0.1678 -0.8367 0.5213
vn -0.4674 -0.7504 0.4674
vn -0.5213 -0.8367 0.1678
vn -0.5213 -0.8367 -0.1678
vn 0.9708 -0.1697 -0.1697
vn 0.9708 0.1697 -0.1697
vn 0.9708 -0.1697 0.1697
vn 0.9708 0.1697 0.1697
vn 0.7504 -0.4674 -0.4674
vn 0.8367 -0.1678 -0.5213
vn 0.8367 0.1678 -0.5213
vn 0.7504 0.4674 -0.4674
vn 0.8367 0.5213 -0.1678
vn 0.8367 0.5213 0.1678
vn 0.7504 0.4674 0.4674
vn 0.8367 0.1678 0.5213
vn 0.8367 -0.1678 0.5213
vn 0.7504 -0.4674 0.4674
vn 0.8367 -0.5213 0.1678
vn 0.8367 -0.5213 -0.1678
vn -0.1697 -0.1697 -0.9708
vn -0.1697 0.1697 -0.9708
vn 0.1697 -0.1697 -0.9708
vn 0.1697 0.1697 -0.9708
vn -0.4674 -0.4674 -0.7504
vn -0.5213 -0.1678 -0.8367
vn -0.5213 0.1678 -0.8367
vn -0.4674 0.4674 -0.7504
vn -0.1678 0.5213 -0.8367
vn 0.1678 0.5213 -0.8367
vn 0.4674 0.4674 -0.7504
vn 0.5213 0.1678 -0.8367
vn 0.5213 -0.1678 -0.8367
vn 0.4674 -0.4674 -0.7504
vn 0.1678 -0.5213 -0.8367
vn -0.1678 -0.5213 -0.8367
vt 0.354285 0.676659
vt 0.285970 0.629986
vt 0.326929 0.580073
vt 0.394184 0.614980
vt 0.240367 0.575652
vt 0.278570 0.541724
vt 0.351746 0.529149
vt 0.415936 0.549654
vt 0.305138 0.509698
vt 0.375615 0.771623
vt 0.309969 0.739028
vt 0.429120 0.726974
vt 0.230164 0.686523
vt 0.173991 0.606620
vt 0.181997 0.543790
vt 0.217011 0.527670
vt 0.249822 0.506512
vt 0.275269 0.487877
vt 0.292444 0.472691
vt 0.318998 0.477347
vt 0.361707 0.481489
vt 0.424238 0.487204
vt 0.502958 0.567306
vt 0.496044 0.493686
vt 0.478047 0.653258
vt 0.428503 0.424292
vt 0.354374 0.407068
vt 0.348790 0.379608
vt 0.416613 0.356064
vt 0.200672 0.399371
vt 0.228614 0.392045
vt 0.229784 0.411272
vt 0.209066 0.417893
vt 0.337695 0.357461
vt 0.384561 0.295455
vt 0.219829 0.455904
vt 0.190772 0.464988
vt 0.194196 0.442844
vt 0.215240 0.436140
vt 0.518711 0.420395
vt 0.310953 0.428563
vt 0.279701 0.436414
vt 0.292080 0.373764
vt 0.332492 0.369269
vt 0.319471 0.386128
vt 0.286101 0.392946
vt 0.154029 0.455739
vt 0.153478 0.445843
vt 0.166290 0.442264
vt 0.166795 0.445757
vt 0.290053 0.365699
vt 0.260230 0.378357
vt 0.247813 0.339810
vt 0.266123 0.320014
vt 0.297373 0.290926
vt 0.343136 0.248590
vt 0.457782 0.243574
vt 0.395497 0.200116
vt 0.505036 0.325870
vt 0.298972 0.204466
vt 0.260728 0.259265
vt 0.210535 0.233937
vt 0.242650 0.166091
vt 0.235567 0.302726
vt 0.195222 0.293274
vt 0.148337 0.218941
vt 0.174349 0.141366
vt 0.144597 0.289147
vt 0.356665 0.138316
vt 0.224967 0.338100
vt 0.193466 0.338565
vt 0.154555 0.341306
vt 0.116944 0.349188
vt 0.073686 0.303880
vt 0.070656 0.207503
vt 0.102267 0.118669
vt 0.203176 0.057119
vt 0.134494 0.053918
vt 0.285653 0.085787
vt 0.031311 0.074823
vt 0.093819 0.000157
vt 0.001075 0.128872
vt 0.130223 0.428494
vt 0.037299 0.387229
vt 0.135523 0.451160
vt 0.001075 0.494938
vt 0.146990 0.475553
vt 0.094388 0.560176
vt 0.279433 0.817830
vt 0.221951 0.792623
vt 0.375618 0.839950
vt 0.172104 0.409733
vt 0.188298 0.425237
vt 0.320188 0.390251
vt 0.324005 0.388823
vt 0.324081 0.389411
vt 0.275128 0.433275
vt 0.246424 0.444705
vt 0.235672 0.428619
vt 0.261322 0.418500
vt 0.148968 0.439240
vt 0.164774 0.439454
vt 0.232721 0.387365
vt 0.258342 0.383591
vt 0.256181 0.403828
vt 0.252492 0.446035
vt 0.225125 0.459667
vt 0.193094 0.471638
vt 0.343422 0.400273
vt 0.307765 0.420786
vt 0.291616 0.409028
vt 0.322356 0.394520
vt 0.169788 0.403022
vt 0.202631 0.393172
vt 0.289076 0.400285
vt 0.258999 0.410398
vt 0.232343 0.419318
vt 0.212008 0.426620
vt 0.191265 0.433210
vt 0.337392 0.383235
vt 0.325944 0.390096
vt 0.325454 0.388930
vt 0.324409 0.389990
vt 0.325213 0.387855
vt 0.869958 0.693957
vt 0.913264 0.693957
vt 0.913264 0.737262
vt 0.869958 0.737262
vt 0.956569 0.693957
vt 0.956569 0.737262
vt 0.913264 0.780567
vt 0.869958 0.780567
vt 0.956569 0.780567
vt 0.826654 0.650651
vt 0.869959 0.650651
vt 0.826654 0.693957
vt 0.913264 0.650651
vt 0.956569 0.650651
vt 0.999874 0.650651
vt 0.999874 0.693957
vt 0.999874 0.737262
vt 0.999874 0.780567
vt 0.999874 0.823872
vt 0.956569 0.823872
vt 0.913264 0.823872
vt 0.869959 0.823872
vt 0.826654 0.780567
vt 0.826654 0.823872
vt 0.826654 0.737262
vt 0.696739 0.867177
vt 0.740044 0.867177
vt 0.740044 0.910482
vt 0.696739 0.910482
vt 0.783349 0.867177
vt 0.783349 0.910482
vt 0.740044 0.953787
vt 0.696739 0.953787
vt 0.783349 0.953787
vt 0.653432 0.823872
vt 0.696739 0.823872
vt 0.653433 0.867177
vt 0.740044 0.823872
vt 0.783349 0.823872
vt 0.826654 0.867177
vt 0.826654 0.910482
vt 0.826654 0.953788
vt 0.826654 0.997093
vt 0.783349 0.997093
vt 0.740044 0.997093
vt 0.696739 0.997093
vt 0.653433 0.953788
vt 0.653434 0.997093
vt 0.653433 0.910482
vt 0.696739 0.347515
vt 0.740044 0.347515
vt 0.740044 0.390821
vt 0.696739 0.390821
vt 0.783349 0.347515
vt 0.783349 0.390821
vt 0.740044 0.434126
vt 0.696739 0.434126
vt 0.783349 0.434126
vt 0.653434 0.304210
vt 0.696739 0.304210
vt 0.653433 0.347515
vt 0.740044 0.304210
vt 0.783349 0.304210
vt 0.826654 0.304210
vt 0.826654 0.347515
vt 0.826654 0.390821
vt 0.826654 0.434126
vt 0.826654 0.477431
vt 0.783349 0.477431
vt 0.740044 0.477431
vt 0.696739 0.477431
vt 0.653433 0.434126
vt 0.653433 0.477431
vt 0.653433 0.390821
vt 0.523517 0.693957
vt 0.566823 0.693957
vt 0.566823 0.737262
vt 0.523517 0.737262
vt 0.610128 0.693957
vt 0.610128 0.737262
vt 0.566823 0.780567
vt 0.523517 0.780567
vt 0.610128 0.780567
vt 0.480212 0.650651
vt 0.523517 0.650651
vt 0.480212 0.693957
vt 0.566823 0.650651
vt 0.610128 0.650651
vt 0.653432 0.650651
vt 0.653434 0.693957
vt 0.653434 0.737262
vt 0.653432 0.780567
vt 0.610128 0.823872
vt 0.566823 0.823872
vt 0.523517 0.823872
vt 0.480212 0.780567
vt 0.480212 0.823872
vt 0.480212 0.737262
vt 0.696739 0.693957
vt 0.740044 0.693957
vt 0.740044 0.737262
vt 0.696739 0.737262
vt 0.783349 0.693957
vt 0.783349 0.737262
vt 0.740044 0.780567
vt 0.696739 0.780567
vt 0.783349 0.780567
vt 0.696739 0.650651
vt 0.740044 0.650651
vt 0.783349 0.650651
vt 0.696739 0.520736
vt 0.740044 0.520736
vt 0.740044 0.564041
vt 0.696739 0.564041
vt 0.783349 0.520736
vt 0.783349 0.564041
vt 0.740044 0.607346
vt 0.696739 0.607346
vt 0.783349 0.607346
vt 0.653433 0.520736
vt 0.826654 0.520736
vt 0.826654 0.564041
vt 0.826654 0.607346
vt 0.653433 0.607346
vt 0.653433 0.564041
s 0
usemtl Material
f 44/1/1 45/2/1 48/3/1 47/4/1
f 45/2/2 46/5/2 49/6/2 48/3/2
f 47/4/3 48/3/3 51/7/3 50/8/3
f 48/3/4 49/6/4 52/9/4 51/7/4
f 1/10/5 12/11/5 44/1/5 11/12/5
f 12/11/6 13/13/6 45/2/6 44/1/6
f 13/13/7 14/14/7 46/5/7 45/2/7
f 14/14/8 2/15/8 15/16/8 46/5/8
f 46/5/9 15/16/9 16/17/9 49/6/9
f 49/6/10 16/17/10 17/18/10 52/9/10
f 52/9/11 17/18/11 4/19/11 18/20/11
f 51/7/12 52/9/12 18/20/12 19/21/12
f 50/8/13 51/7/13 19/21/13 20/22/13
f 9/23/14 50/8/14 20/22/14 3/24/14
f 10/25/15 47/4/15 50/8/15 9/23/15
f 11/12/16 44/1/16 47/4/16 10/25/16
f 53/26/17 54/27/17 57/28/17 56/29/17
f 25/30/18 115/31/18 99/32/18 102/33/18
f 56/29/19 57/28/19 60/34/19 59/35/19
f 85/36/20 82/37/20 107/38/20 104/39/20
f 3/24/21 20/22/21 53/26/21 23/40/21
f 20/22/22 19/21/22 54/27/22 53/26/22
f 19/21/23 18/20/23 55/41/23 54/27/23
f 18/20/24 4/19/24 24/42/24 55/41/24
f 112/43/25 79/44/25 97/45/25 98/46/25
f 58/47/26 111/48/26 91/49/26 92/50/26
f 61/51/27 26/52/27 8/53/27 27/54/27
f 60/34/28 61/51/28 27/54/28 28/55/28
f 59/35/29 60/34/29 28/55/29 29/56/29
f 21/57/30 59/35/30 29/56/30 7/58/30
f 22/59/31 56/29/31 59/35/31 21/57/31
f 23/40/32 53/26/32 56/29/32 22/59/32
f 62/60/33 63/61/33 66/62/33 65/63/33
f 63/61/34 64/64/34 67/65/34 66/62/34
f 65/63/35 66/62/35 69/66/35 68/67/35
f 66/62/36 67/65/36 70/68/36 69/66/36
f 7/58/37 29/56/37 62/60/37 32/69/37
f 29/56/38 28/55/38 63/61/38 62/60/38
f 28/55/39 27/54/39 64/64/39 63/61/39
f 27/54/40 8/53/40 33/70/40 64/64/40
f 64/64/41 33/70/41 34/71/41 67/65/41
f 67/65/42 34/71/42 35/72/42 70/68/42
f 70/68/43 35/72/43 6/73/43 36/74/43
f 69/66/44 70/68/44 36/74/44 37/75/44
f 68/67/45 69/66/45 37/75/45 38/76/45
f 30/77/46 68/67/46 38/76/46 5/78/46
f 31/79/47 65/63/47 68/67/47 30/77/47
f 32/69/48 62/60/48 65/63/48 31/79/48
f 5/78/49 38/76/49 71/80/49 40/81/49
f 38/76/50 37/75/50 72/82/50 71/80/50
f 36/74/51 6/73/51 41/83/51 73/84/51
f 73/84/52 41/83/52 42/85/52 74/86/52
f 74/86/53 42/85/53 43/87/53 77/88/53
f 77/88/54 43/87/54 2/15/54 14/14/54
f 75/89/55 76/90/55 13/13/55 12/11/55
f 39/91/56 75/89/56 12/11/56 1/10/56
f 114/92/57 25/30/57 102/33/57 105/93/57
f 95/94/58 97/45/58 120/95/58 122/96/58
f 109/97/59 110/98/59 101/99/59 87/100/59
f 111/48/60 113/101/60 90/102/60 91/49/60
f 8/53/61 26/52/61 78/103/61 33/70/61
f 116/104/62 112/43/62 98/46/62 89/105/62
f 113/101/63 114/92/63 105/93/63 90/102/63
f 24/42/64 4/19/64 17/18/64 80/106/64
f 80/106/65 17/18/65 16/17/65 83/107/65
f 83/107/66 16/17/66 15/16/66 86/108/66
f 86/108/67 15/16/67 2/15/67 43/87/67
f 115/31/68 116/104/68 89/105/68 99/32/68
f 117/109/69 118/110/69 94/111/69 93/112/69
f 35/72/70 84/113/70 41/83/70 6/73/70
f 34/71/71 81/114/71 84/113/71 35/72/71
f 33/70/72 78/103/72 81/114/72 34/71/72
f 93/112/73 94/111/73 96/115/73 95/94/73
f 95/94/74 96/115/74 98/46/74 97/45/74
f 94/111/75 87/100/75 88/116/75 96/115/75
f 96/115/76 88/116/76 89/105/76 98/46/76
f 99/32/77 100/117/77 103/118/77 102/33/77
f 100/117/78 101/99/78 104/39/78 103/118/78
f 102/33/79 103/118/79 106/119/79 105/93/79
f 103/118/80 104/39/80 107/38/80 106/119/80
f 89/105/81 88/116/81 100/117/81 99/32/81
f 88/116/82 87/100/82 101/99/82 100/117/82
f 106/119/83 107/38/83 92/50/83 91/49/83
f 105/93/84 106/119/84 91/49/84 90/102/84
f 82/37/85 58/47/85 92/50/85 107/38/85
f 118/110/86 109/97/86 87/100/86 94/111/86
f 110/98/87 85/36/87 104/39/87 101/99/87
f 108/120/88 117/109/88 124/121/88 123/122/88
f 60/34/89 57/28/89 108/120/89 79/44/89
f 80/106/90 83/107/90 85/36/90 110/98/90
f 55/41/91 24/42/91 109/97/91 118/110/91
f 86/108/92 43/87/92 58/47/92 82/37/92
f 54/27/93 55/41/93 118/110/93 117/109/93
f 78/103/94 26/52/94 116/104/94 115/31/94
f 41/83/95 84/113/95 114/92/95 113/101/95
f 26/52/96 61/51/96 112/43/96 116/104/96
f 42/85/97 41/83/97 113/101/97 111/48/97
f 24/42/98 80/106/98 110/98/98 109/97/98
f 57/28/99 54/27/99 117/109/99 108/120/99
f 84/113/100 81/114/100 25/30/100 114/92/100
f 43/87/101 42/85/101 111/48/101 58/47/101
f 61/51/102 60/34/102 79/44/102 112/43/102
f 83/107/103 86/108/103 82/37/103 85/36/103
f 81/114/104 78/103/104 115/31/104 25/30/104
f 123/122/105 124/121/105 121/123/105 122/96/105
f 119/124/106 123/122/106 122/96/106 120/95/106
f 79/44/107 108/120/107 123/122/107 119/124/107
f 117/109/108 93/112/108 121/123/108 124/121/108
f 97/45/109 79/44/109 119/124/109 120/95/109
f 93/112/110 95/94/110 122/96/110 121/123/110
f 169/125/111 170/126/111 173/127/111 172/128/111
f 170/126/112 171/129/112 174/130/112 173/127/112
f 172/128/113 173/127/113 176/131/113 175/132/113
f 173/127/114 174/130/114 177/133/114 176/131/114
f 125/134/115 165/135/115 169/125/115 154/136/115
f 165/135/116 164/137/116 170/126/116 169/125/116
f 164/137/117 163/138/117 171/129/117 170/126/117
f 163/138/118 129/139/118 162/140/118 171/129/118
f 171/129/119 162/140/119 161/141/119 174/130/119
f 174/130/120 161/141/120 160/142/120 177/133/120
f 177/133/121 160/142/121 131/143/121 153/144/121
f 176/131/122 177/133/122 153/144/122 152/145/122
f 175/132/123 176/131/123 152/145/123 151/146/123
f 156/147/124 175/132/124 151/146/124 127/148/124
f 155/149/125 172/128/125 175/132/125 156/147/125
f 154/136/126 169/125/126 172/128/126 155/149/126
f 178/150/127 179/151/127 182/152/127 181/153/127
f 179/151/128 180/154/128 183/155/128 182/152/128
f 181/153/129 182/152/129 185/156/129 184/157/129
f 182/152/130 183/155/130 186/158/130 185/156/130
f 128/159/131 147/160/131 178/150/131 159/161/131
f 147/160/132 146/162/132 179/151/132 178/150/132
f 146/162/133 145/163/133 180/154/133 179/151/133
f 145/163/134 127/148/134 151/164/134 180/154/134
f 180/154/135 151/164/135 152/165/135 183/155/135
f 183/155/136 152/165/136 153/166/136 186/158/136
f 186/158/137 153/166/137 131/167/137 144/168/137
f 185/156/138 186/158/138 144/168/138 143/169/138
f 184/157/139 185/156/139 143/169/139 142/170/139
f 157/171/140 184/157/140 142/170/140 132/172/140
f 158/173/141 181/153/141 184/157/141 157/171/141
f 159/161/142 178/150/142 181/153/142 158/173/142
f 187/174/143 188/175/143 191/176/143 190/177/143
f 188/175/144 189/178/144 192/179/144 191/176/144
f 190/177/145 191/176/145 194/180/145 193/181/145
f 191/176/146 192/179/146 195/182/146 194/180/146
f 132/183/147 142/184/147 187/174/147 135/185/147
f 142/184/148 143/186/148 188/175/148 187/174/148
f 143/186/149 144/187/149 189/178/149 188/175/149
f 144/187/150 131/188/150 160/189/150 189/178/150
f 189/178/151 160/189/151 161/190/151 192/179/151
f 192/179/152 161/190/152 162/191/152 195/182/152
f 195/182/153 162/191/153 129/192/153 148/193/153
f 194/180/154 195/182/154 148/193/154 149/194/154
f 193/181/155 194/180/155 149/194/155 150/195/155
f 133/196/156 193/181/156 150/195/156 130/197/156
f 134/198/157 190/177/157 193/181/157 133/196/157
f 135/185/158 187/174/158 190/177/158 134/198/158
f 196/199/159 197/200/159 200/201/159 199/202/159
f 197/200/160 198/203/160 201/204/160 200/201/160
f 199/202/161 200/201/161 203/205/161 202/206/161
f 200/201/162 201/204/162 204/207/162 203/205/162
f 130/208/163 138/209/163 196/199/163 133/210/163
f 138/209/164 137/211/164 197/200/164 196/199/164
f 137/211/165 136/212/165 198/203/165 197/200/165
f 136/212/166 126/213/166 168/214/166 198/203/166
f 198/203/167 168/214/167 167/215/167 201/204/167
f 201/204/168 167/215/168 166/216/168 204/207/168
f 204/207/169 166/216/169 128/159/169 159/217/169
f 203/205/170 204/207/170 159/217/170 158/218/170
f 202/206/171 203/205/171 158/218/171 157/219/171
f 135/220/172 202/206/172 157/219/172 132/221/172
f 134/222/173 199/202/173 202/206/173 135/220/173
f 133/210/174 196/199/174 199/202/174 134/222/174
f 205/223/175 206/224/175 209/225/175 208/226/175
f 206/224/176 207/227/176 210/228/176 209/225/176
f 208/226/177 209/225/177 212/229/177 211/230/177
f 209/225/178 210/228/178 213/231/178 212/229/178
f 126/213/179 141/232/179 205/223/179 168/214/179
f 141/232/180 140/233/180 206/224/180 205/223/180
f 140/233/181 139/234/181 207/227/181 206/224/181
f 139/234/182 125/134/182 154/136/182 207/227/182
f 207/227/183 154/136/183 155/149/183 210/228/183
f 210/228/184 155/149/184 156/147/184 213/231/184
f 213/231/185 156/147/185 127/148/185 145/163/185
f 212/229/186 213/231/186 145/163/186 146/162/186
f 211/230/187 212/229/187 146/162/187 147/160/187
f 166/216/188 211/230/188 147/160/188 128/159/188
f 167/215/189 208/226/189 211/230/189 166/216/189
f 168/214/190 205/223/190 208/226/190 167/215/190
f 214/235/191 215/236/191 218/237/191 217/238/191
f 215/236/192 216/239/192 219/240/192 218/237/192
f 217/238/193 218/237/193 221/241/193 220/242/193
f 218/237/194 219/240/194 222/243/194 221/241/194
f 130/197/195 150/195/195 214/235/195 138/244/195
f 150/195/196 149/194/196 215/236/196 214/235/196
f 149/194/197 148/193/197 216/239/197 215/236/197
f 148/193/198 129/192/198 163/245/198 216/239/198
f 216/239/199 163/245/199 164/246/199 219/240/199
f 219/240/200 164/246/200 165/247/200 222/243/200
f 222/243/201 165/247/201 125/134/201 139/234/201
f 221/241/202 222/243/202 139/234/202 140/233/202
f 220/242/203 221/241/203 140/233/203 141/232/203
f 136/248/204 220/242/204 141/232/204 126/213/204
f 137/249/205 217/238/205 220/242/205 136/248/205
f 138/244/206 214/235/206 217/238/206 137/249/206
