# Blender 5.1.1
# www.blender.org
mtllib player_weapon.mtl
o Cube
v 0.078644 0.285882 -0.078644
v 0.078644 -0.285882 -0.078644
v 0.078644 0.285882 0.078644
v 0.078644 -0.285882 0.078644
v -0.078644 0.285882 -0.078644
v -0.078644 -0.285882 -0.078644
v -0.078644 0.285882 0.078644
v -0.078644 -0.285882 0.078644
v 0.259329 0.440535 -0.137976
v 0.259329 0.269309 -0.137976
v 0.259329 0.440535 0.137976
v 0.259329 0.269309 0.137976
v -0.259329 0.440535 -0.137976
v -0.259329 0.269309 -0.137976
v -0.259329 0.440535 0.137976
v -0.259329 0.269309 0.137976
v -0.170240 0.383348 0.029045
v -0.207652 1.996211 0.029045
v -0.170240 0.383348 -0.029916
v -0.207652 1.996211 -0.029916
v 0.170240 0.383348 0.029045
v 0.202896 1.996211 0.029045
v 0.170240 0.383348 -0.029916
v 0.202896 1.996211 -0.029916
v 0.000000 0.383348 -0.029916
v 0.000000 2.268329 -0.029916
v 0.000000 0.383348 0.029045
v 0.000000 2.268329 0.029045
vn -0.0000 1.0000 -0.0000
vn -0.0000 -0.0000 1.0000
vn -1.0000 -0.0000 -0.0000
vn -0.0000 -1.0000 -0.0000
vn 1.0000 -0.0000 -0.0000
vn -0.0000 -0.0000 -1.0000
vn -0.9997 -0.0232 -0.0000
vn 0.9998 -0.0202 -0.0000
vn -0.7950 0.6066 -0.0000
vn 0.8017 0.5977 -0.0000
vt 0.250263 0.892439
vt 0.151890 0.794066
vt 0.250263 0.794066
vt 0.053517 0.695693
vt 0.151890 0.695693
vt 0.447009 0.794066
vt 0.348636 0.695693
vt 0.447009 0.695693
vt 0.250263 0.695693
vt 0.151890 0.597320
vt 0.250263 0.597320
vt 0.348636 0.794066
vt 0.725008 0.022179
vt 0.582138 0.123387
vt 0.704177 0.001348
vt 0.602969 0.144218
vt 0.352763 0.352763
vt 0.373594 0.373594
vt 0.230724 0.474802
vt 0.251555 0.495633
vt 0.001348 0.704177
vt 0.001348 0.245426
vt 0.123387 0.123387
vt 0.602969 0.602969
vt 0.929394 0.399636
vt 0.834616 0.359160
vt 0.837880 0.359389
vt 0.598853 0.593906
vt 0.934312 0.529268
vt 0.999848 0.572844
vt 0.992437 0.326562
vt 0.621094 0.129224
vt 0.999848 0.180611
vt 0.837876 0.358923
vt 0.650431 0.533624
vt 0.547878 0.303990
vt 0.638796 0.399707
vt 0.834609 0.358532
vt 0.151890 0.892439
vt 0.053517 0.794066
vt 0.022180 0.725008
vt 0.480930 0.725008
s 0
usemtl Material
f 5/1/1 3/2/1 1/3/1
f 3/2/2 8/4/2 4/5/2
f 7/6/3 6/7/3 8/8/3
f 2/9/4 8/10/4 6/11/4
f 1/3/5 4/5/5 2/9/5
f 5/12/6 2/9/6 6/7/6
f 5/1/1 7/39/1 3/2/1
f 3/2/2 7/40/2 8/4/2
f 7/6/3 5/12/3 6/7/3
f 2/9/4 4/5/4 8/10/4
f 1/3/5 3/2/5 4/5/5
f 5/12/6 1/3/6 2/9/6
usemtl Material
f 10/13/3 11/14/3 9/15/3
f 12/16/6 15/17/6 11/14/6
f 16/18/5 13/19/5 15/17/5
f 14/20/2 9/21/2 13/19/2
f 15/17/4 9/22/4 11/23/4
f 12/24/1 14/20/1 16/18/1
f 25/25/6 24/26/6 23/27/6
f 18/28/7 19/29/7 17/30/7
f 27/31/2 18/32/2 17/33/2
f 24/26/8 21/34/8 23/27/8
f 23/27/4 27/31/4 25/25/4
f 20/35/9 28/36/9 26/37/9
f 26/37/10 22/38/10 24/26/10
f 22/38/2 27/31/2 21/34/2
f 20/35/6 25/25/6 19/29/6
f 25/25/4 17/30/4 19/29/4
f 10/13/3 12/16/3 11/14/3
f 12/16/6 16/18/6 15/17/6
f 16/18/5 14/20/5 13/19/5
f 14/20/2 10/41/2 9/21/2
f 15/17/4 13/19/4 9/22/4
f 12/24/1 10/42/1 14/20/1
f 25/25/6 26/37/6 24/26/6
f 18/28/7 20/35/7 19/29/7
f 27/31/2 28/36/2 18/32/2
f 24/26/8 22/38/8 21/34/8
f 23/27/4 21/34/4 27/31/4
f 20/35/9 18/28/9 28/36/9
f 26/37/10 28/36/10 22/38/10
f 22/38/2 28/36/2 27/31/2
f 20/35/6 26/37/6 25/25/6
f 25/25/4 27/31/4 17/30/4
