mtllib boss_right_arm_upper.mtl
o float_L_arm_upper
v 0.532534 -0.728156 -0.245166
v 0.505672 -0.581331 -0.245166
v 0.532534 -0.728156 0.126284
v 0.505672 -0.581331 0.126284
v 0.390832 -0.778571 -0.245166
v 0.363970 -0.631746 -0.245166
v 0.390832 -0.778571 0.126284
v 0.363970 -0.631746 0.126284
v 0.512466 -0.914805 0.072317
v 0.431327 -0.896520 0.072317
v 0.431327 -0.896520 -0.191200
v 0.512466 -0.914805 -0.191200
v 0.437638 -1.069339 -0.051326
v 0.432641 -1.068213 -0.051326
v 0.432641 -1.068213 -0.067556
v 0.437638 -1.069339 -0.067556
v 0.532534 -0.728156 0.244089
v 0.503084 -0.588546 0.162330
v 0.361382 -0.638961 0.162330
v 0.390832 -0.778571 0.244089
v 0.433498 -0.944632 0.139678
v 0.433498 -0.944632 0.150287
v 0.420738 -0.949172 0.150287
v 0.420738 -0.949172 0.139678
vn 0.9837 0.1800 -0.0000
vn 0.3352 -0.9421 -0.0000
vn -0.9837 -0.1800 -0.0000
vn -0.0000 -0.0000 -1.0000
vn -0.3352 0.9421 -0.0000
vn 0.0477 -0.3308 0.9425
vn -0.9458 -0.3247 -0.0000
vn 0.0477 -0.3308 -0.9425
vn 0.9943 -0.1069 -0.0000
vn -0.2198 -0.9755 -0.0000
vn -0.1307 -0.5800 0.8040
vn -1.0000 -0.0076 -0.0000
vn -0.1307 -0.5800 -0.8040
vn 0.9000 -0.4358 -0.0000
vn -0.1678 0.4716 0.8657
vn 0.9795 0.1999 0.0259
vn -0.3308 0.9297 0.1623
vn -0.9795 -0.1999 -0.0259
vn 0.9094 -0.4160 -0.0000
vn 0.1614 -0.4536 0.8765
vn -0.9850 -0.1727 -0.0000
vn 0.0262 -0.0737 -0.9969
vt 0.460586 0.094417
vt 0.468348 0.052030
vt 0.573830 0.071348
vt 0.566067 0.113735
vt 0.594501 0.105405
vt 0.594430 0.104628
vt 0.595196 0.104649
vt 0.595110 0.105112
vt 0.619493 0.123571
vt 0.613491 0.073011
vt 0.739314 0.058073
vt 0.745317 0.108633
vt 0.788634 0.043942
vt 0.794637 0.094502
vt 0.607442 0.022064
vt 0.733265 0.007126
vt 0.661655 0.144698
vt 0.666650 0.158339
vt 0.611881 0.193881
vt 0.705099 0.141288
vt 0.761252 0.193881
vt 0.701246 0.153959
vt 0.683502 0.149633
vt 0.683361 0.149131
vt 0.684572 0.148300
vt 0.684757 0.148776
vt 0.587776 0.097729
vt 0.580599 0.079571
vt 0.605517 0.082350
vt 0.598720 0.098509
v 0.165203 0.042532 -0.106862
v 0.038343 0.214532 -0.106862
v 0.165203 0.042532 0.106861
v 0.038343 0.214532 0.106862
v -0.006797 -0.084329 -0.106862
v -0.133657 0.087672 -0.106862
v -0.006797 -0.084329 0.106862
v -0.133657 0.087672 0.106862
vn 0.8048 0.5936 -0.0000
vn -0.0000 -0.0000 1.0000
vn -0.8048 -0.5936 -0.0000
vn -0.0000 -0.0000 -1.0000
vn 0.5936 -0.8048 -0.0000
vn -0.5936 0.8048 -0.0000
vt 0.527050 0.721938
vt 0.527050 0.666988
vt 0.582000 0.666988
vt 0.582000 0.721938
vt 0.636950 0.666988
vt 0.636950 0.721938
vt 0.691900 0.666988
vt 0.691900 0.721938
vt 0.746850 0.666988
vt 0.746850 0.721938
vt 0.636950 0.776888
vt 0.691900 0.776888
vt 0.636950 0.612038
vt 0.691900 0.612038
v 0.372829 -0.186209 -0.111232
v 0.230803 -0.026503 -0.111231
v 0.372829 -0.186209 0.102492
v 0.230803 -0.026503 0.102492
v 0.213122 -0.328235 -0.111231
v 0.071096 -0.168529 -0.111231
v 0.213122 -0.328235 0.102492
v 0.071096 -0.168529 0.102492
vn 0.7473 0.6645 -0.0000
vn -0.0000 -0.0000 1.0000
vn -0.7473 -0.6645 -0.0000
vn -0.0000 -0.0000 -1.0000
vn 0.6645 -0.7473 -0.0000
vn -0.6645 0.7473 -0.0000
vt 0.878954 0.279898
vt 0.824004 0.279898
vt 0.824004 0.224948
vt 0.878954 0.224948
vt 0.824004 0.169998
vt 0.878954 0.169998
vt 0.824004 0.115048
vt 0.878954 0.115048
vt 0.824004 0.060098
vt 0.878954 0.060098
vt 0.933904 0.169998
vt 0.933904 0.115048
vt 0.769054 0.169998
vt 0.769054 0.115048
v 0.492078 -0.471052 -0.116921
v 0.376786 -0.291093 -0.116921
v 0.492078 -0.471052 0.096802
v 0.376786 -0.291093 0.096802
v 0.312119 -0.586345 -0.116921
v 0.196827 -0.406386 -0.116921
v 0.312120 -0.586345 0.096802
v 0.196827 -0.406386 0.096802
vn 0.8420 0.5394 -0.0000
vn -0.0000 -0.0000 1.0000
vn -0.8420 -0.5394 -0.0000
vn -0.0000 -0.0000 -1.0000
vn 0.5394 -0.8420 -0.0000
vn -0.5394 0.8420 -0.0000
vt 0.692236 0.834927
vt 0.692236 0.889877
vt 0.637286 0.889877
vt 0.637286 0.834927
vt 0.582336 0.889877
vt 0.582336 0.834927
vt 0.527386 0.889877
vt 0.527386 0.834927
vt 0.472436 0.889877
vt 0.472436 0.834927
vt 0.582336 0.779977
vt 0.527386 0.779977
vt 0.582336 0.944827
vt 0.527386 0.944827
usemtl Material.001
s 0
f 25/31/23 26/32/23 28/33/23 27/34/23
f 27/34/24 28/33/24 32/35/24 31/36/24
f 31/36/25 32/35/25 30/37/25 29/38/25
f 29/38/26 30/37/26 26/39/26 25/40/26
f 27/41/27 31/36/27 29/38/27 25/42/27
f 32/35/28 28/43/28 26/44/28 30/37/28
f 33/45/29 34/46/29 36/47/29 35/48/29
f 35/48/30 36/47/30 40/49/30 39/50/30
f 39/50/31 40/49/31 38/51/31 37/52/31
f 37/52/32 38/51/32 34/53/32 33/54/32
f 35/55/33 39/50/33 37/52/33 33/56/33
f 40/49/34 36/57/34 34/58/34 38/51/34
